<svg width="21" height="18" viewBox="0 0 21 18" fill="none" xmlns="http://www.w3.org/2000/svg">
<path fill-rule="evenodd" clip-rule="evenodd" d="M13.6085 1.49717C12.4473 -0.499055 9.55064 -0.499055 8.38939 1.49717L1.40866 13.4972C0.238616 15.5085 1.70886 18 4.01823 18H17.9797C20.289 18 21.7593 15.5085 20.5892 13.4972L13.6085 1.49717ZM10.1182 2.50283C10.5082 1.83239 11.4897 1.83239 11.8797 2.50283L18.8605 14.5028C19.2417 15.1582 18.7728 16 17.9797 16H4.01823C3.22505 16 2.75621 15.1582 3.13743 14.5028L10.1182 2.50283ZM10.9989 5C11.5512 5 11.9989 5.44772 11.9989 6V10C11.9989 10.5523 11.5512 11 10.9989 11C10.4467 11 9.99895 10.5523 9.99895 10V6C9.99895 5.44772 10.4467 5 10.9989 5ZM11.9991 13C11.9991 13.5523 11.5514 14 10.9991 14C10.4468 14 9.99907 13.5523 9.99907 13C9.99907 12.4477 10.4468 12 10.9991 12C11.5514 12 11.9991 12.4477 11.9991 13Z" fill="#E34949"/>
</svg>
