<svg width="14" height="14" viewBox="0 0 14 14" fill="none" xmlns="http://www.w3.org/2000/svg">
<path fill-rule="evenodd" clip-rule="evenodd" d="M13.9723 6.99995C13.9723 10.8506 10.8507 13.9722 7.00007 13.9722C3.14942 13.9722 0.0278442 10.8506 0.0278438 6.99995C0.0278435 3.14929 3.14941 0.0277233 7.00007 0.027723C10.8507 0.0277226 13.9723 3.14929 13.9723 6.99995ZM7.00007 12.4722C10.0223 12.4722 12.4723 10.0222 12.4723 6.99995C12.4723 3.97772 10.0223 1.52772 7.00007 1.52772C3.97784 1.52772 1.52784 3.97772 1.52784 6.99995C1.52784 10.0222 3.97784 12.4722 7.00007 12.4722ZM7.00007 10.0833C6.58585 10.0833 6.25007 9.74749 6.25007 9.33328L6.25007 6.99995C6.25007 6.58573 6.58585 6.24995 7.00007 6.24995C7.41428 6.24995 7.75007 6.58573 7.75007 6.99995L7.75007 9.33328C7.75007 9.74749 7.41428 10.0833 7.00007 10.0833ZM7.00007 3.88883C6.57051 3.88883 6.22229 4.23706 6.22229 4.66661C6.22229 5.09617 6.57051 5.44439 7.00007 5.44439C7.42962 5.44439 7.77785 5.09617 7.77785 4.66661C7.77785 4.23706 7.42962 3.88883 7.00007 3.88883Z" fill="#586066"/>
</svg>
