<svg width="24" height="24" viewBox="0 0 24 24" fill="none" xmlns="http://www.w3.org/2000/svg">
<path fill-rule="evenodd" clip-rule="evenodd" d="M19.1152 22.4594C19.1152 23.0117 18.6675 23.4594 18.1152 23.4594L5.85689 23.4594C5.30461 23.4594 4.85689 23.0117 4.85689 22.4594C4.85689 21.9071 5.30461 21.4594 5.85689 21.4594L18.1152 21.4594C18.6675 21.4594 19.1152 21.9071 19.1152 22.4594ZM11.9857 1.53973C12.538 1.53973 12.9857 1.98745 12.9857 2.53973L12.9857 12.3846L17.4081 7.96214C17.7987 7.57162 18.4318 7.57162 18.8223 7.96214C19.2129 8.35266 19.2129 8.98583 18.8223 9.37635L12.6932 15.5055L11.9861 16.2126L11.2848 15.5114C11.2806 15.5073 11.2765 15.5031 11.2724 15.4989L5.14978 9.37635C4.75926 8.98583 4.75926 8.35266 5.14978 7.96214C5.54031 7.57161 6.17347 7.57161 6.564 7.96214L10.9857 12.3838L10.9857 2.53973C10.9857 1.98745 11.4334 1.53973 11.9857 1.53973Z" fill="#E34949"/>
</svg>
