<svg width="49" height="53" viewBox="0 0 49 53" fill="none" xmlns="http://www.w3.org/2000/svg">
<path d="M26.2257 45.657C26.0688 45.657 26.0688 45.8139 26.0688 45.9708C26.0688 46.1277 26.0688 46.2846 26.2257 46.2846C26.3826 46.2846 26.5395 46.2846 26.6964 46.2846C33.5999 42.2053 42.2293 32.6345 44.7396 10.6689C44.8965 9.72754 44.2689 8.62926 43.3276 8.31547C40.1896 7.21719 32.1878 4.70681 26.6964 4.07922C26.5395 4.07922 26.2257 4.23614 26.2257 4.39304C26.2257 4.70683 26.3826 4.86371 26.5395 4.86371C31.874 5.4913 39.8758 8.00167 43.0137 9.09996C43.6413 9.25685 43.9551 9.88443 43.7982 10.512C41.4448 32.3207 32.9723 41.5777 26.2257 45.657Z" fill="url(#paint0_linear)"/>
<path d="M36.2673 43.1468C36.5811 42.6761 37.0518 42.2054 37.3656 41.7347C37.6794 41.4209 37.8363 40.9502 38.1501 40.6364L38.3069 40.4795C38.9345 39.5381 39.4052 38.5967 40.0328 37.6553C40.3466 37.1847 40.5035 36.714 40.8173 36.2433C40.9742 36.0864 40.9742 35.9295 41.1311 35.7726C41.288 35.4588 41.6018 34.9881 41.7587 34.5174C42.0725 34.0467 42.2294 33.4191 42.5432 32.9484C42.7001 32.7915 42.7001 32.4777 42.857 32.1639C43.0139 31.5364 43.3277 31.0657 43.4846 30.4381L43.6415 30.1243C46.7794 22.1225 48.3484 13.6501 48.976 7.68796C49.1329 6.74657 48.5053 5.8052 47.5639 5.49141C43.0139 3.92243 32.0311 0.470692 25.5983 0C25.4414 0 25.4414 0 25.2845 0C24.9707 0 24.6569 0 24.5 0C24.1862 0 23.8724 0 23.7155 0C23.5586 0 23.5586 0 23.4017 0C16.9689 0.470692 5.98613 3.92243 1.43611 5.49141C0.494722 5.8052 -0.132869 6.74657 0.0240278 7.68796C0.651617 13.807 2.22059 22.1225 5.35854 30.1243C5.35854 30.2812 5.51543 30.4381 5.51543 30.4381L6.29992 32.1639L6.61371 32.7915L7.39819 34.3605L8.02579 35.6157C8.02579 35.6157 8.65337 36.8709 8.96717 37.3416L11.6344 41.4209L12.7327 42.833L13.5172 43.7743L13.9879 44.245C13.9879 44.245 14.9293 45.1864 15.4 45.6571C17.7534 48.1675 20.5776 50.2071 23.7155 51.7761C24.0293 51.933 24.3431 52.0899 24.6569 52.0899C24.9707 52.0899 25.2845 51.933 25.5983 51.7761C28.7362 50.2071 31.5604 48.0106 33.9138 45.6571C34.3845 45.1864 34.8552 44.7157 35.3259 44.245C35.4828 44.0881 35.6397 43.9312 35.7966 43.6175C35.7966 43.6175 36.1104 43.3037 36.2673 43.1468ZM1.43611 6.27589C4.73095 5.17761 8.02578 4.23621 11.3206 3.29483C17.1258 1.72586 21.519 0.941369 24.3431 0.941369C27.1673 0.941369 31.5604 1.72586 37.3656 3.29483C41.6018 4.39311 45.3673 5.6483 47.2501 6.27589C47.8777 6.43279 48.1915 7.06037 48.0346 7.68796C47.5639 11.7673 46.7794 16.9449 45.3673 22.2794C45.3673 22.2794 45.3673 22.2794 45.3673 22.4363C44.5828 24.9467 43.7984 27.6139 42.857 29.9674C42.5432 30.595 42.3863 31.3794 42.0725 32.007C42.0725 32.1639 41.9156 32.3208 41.9156 32.4777C41.6018 33.1053 41.4449 33.576 41.1311 34.2036C40.9742 34.5174 40.8173 34.8312 40.6604 35.145C40.3466 35.7726 40.0328 36.4002 39.719 37.0277C39.719 37.1846 39.5621 37.3416 39.5621 37.3416C39.0914 38.126 38.6208 38.9105 38.1501 39.5381C37.9932 39.695 37.9932 39.8519 37.8363 40.0088C37.6794 40.3226 37.3656 40.6364 37.2087 40.9502C36.8949 41.4209 36.4242 41.8916 36.1104 42.3623C35.7966 42.6761 35.4828 42.9898 35.3259 43.3036C35.169 43.4605 35.169 43.6174 35.0121 43.7743C32.188 46.9123 29.05 49.4226 25.4414 51.3054C25.2845 51.4623 25.1276 51.4623 24.8138 51.4623C24.6569 51.4623 24.5 51.4623 24.1862 51.3054C20.5776 49.4226 17.4396 46.9123 14.6155 43.7743C14.4586 43.6174 14.3017 43.4605 14.3017 43.4605L13.3603 42.3623L12.7327 41.5778L12.262 40.9502L11.6344 40.0088L11.3206 39.5381L9.90856 37.3416L9.59476 36.8709C9.59476 36.8709 8.96717 35.6157 8.65338 34.9881C8.49648 34.6743 8.33958 34.3605 8.18268 34.0467C7.86889 33.4191 7.55509 32.9484 7.39819 32.3208C7.2413 32.1639 7.2413 32.0071 7.2413 31.8502C6.9275 31.2226 6.61371 30.4381 6.29992 29.8105C5.35853 27.3001 4.57405 24.7898 3.78956 22.2794C3.78956 22.2794 3.78956 22.2794 3.78956 22.1225C2.37749 16.788 1.4361 11.6104 1.1223 7.53108C0.651612 7.06038 0.965414 6.43279 1.43611 6.27589Z" fill="url(#paint1_linear)"/>
<path d="M21.9904 46.2847H22.1473C22.3042 46.2847 22.3042 46.2847 22.3042 46.1278C22.4611 46.1278 22.618 46.1278 22.7749 45.9709C23.0887 45.814 23.2456 45.5002 23.2456 45.0295V4.86378C23.2456 4.54998 23.0887 4.23619 22.9318 4.07929C22.7749 3.9224 22.4611 3.7655 22.1473 3.7655C16.6559 4.39309 8.65413 7.06034 5.51618 8.00172C4.5748 8.31552 3.94721 9.2569 4.10411 10.3552C6.45757 32.6346 15.2438 42.2053 21.9904 46.2847ZM5.82997 9.25691C7.55584 8.62932 10.6938 7.68795 14.1455 6.74657C17.4404 5.80518 20.2645 5.33448 22.3042 5.02069H22.4611C22.4611 5.02069 22.4611 5.0207 22.4611 5.17759V45.3433C22.4611 45.3433 22.4611 45.5002 22.3042 45.5002H22.1473C15.0869 41.1071 9.83545 33.5217 6.8544 22.5389C6.8544 22.382 6.8544 22.5389 6.77137 22.1225C6.10126 18.762 5.20239 14.9052 4.7317 10.669C4.88859 9.88451 5.20238 9.41381 5.82997 9.25691Z" fill="url(#paint2_linear)"/>
<defs>
<linearGradient id="paint0_linear" x1="26.0124" y1="25.2346" x2="44.6684" y2="25.2346" gradientUnits="userSpaceOnUse">
<stop stop-color="#E90DCA"/>
<stop offset="1" stop-color="#1536F1"/>
</linearGradient>
<linearGradient id="paint1_linear" x1="-0.241769" y1="26.2006" x2="48.9179" y2="26.2006" gradientUnits="userSpaceOnUse">
<stop stop-color="#E90DCA"/>
<stop offset="1" stop-color="#1536F1"/>
</linearGradient>
<linearGradient id="paint2_linear" x1="4.03681" y1="25.241" x2="23.3826" y2="25.241" gradientUnits="userSpaceOnUse">
<stop stop-color="#E90DCA"/>
<stop offset="1" stop-color="#1536F1"/>
</linearGradient>
</defs>
</svg>
