<svg width="697" height="437" viewBox="0 0 697 437" fill="none" xmlns="http://www.w3.org/2000/svg">
<path d="M664.215 435.973C624.355 435.973 43.6774 436.106 43.3303 435.065L43.2769 434.931C43.2769 434.931 43.2235 434.798 43.2235 434.745C43.0099 434.237 -46.2409 288.227 92.5077 186.615C146.784 146.862 89.1171 120.591 132.287 76.3264C181.892 25.467 236.035 81.7193 291.22 58.6524C300.964 54.5676 310.736 48.0267 320.534 37.9616C326.034 32.3017 332.094 27.3626 338.555 23.0909C339.543 22.4235 340.557 21.7827 341.572 21.1687C345.443 18.7926 349.447 16.63 353.586 14.6811C356.362 13.3729 359.192 12.1715 362.076 11.0769C366.641 9.31485 371.34 7.79307 376.145 6.51157C382.953 4.69612 389.975 3.33453 397.13 2.42681C400.253 2.02634 403.404 1.70597 406.554 1.46569C468.199 -3.15304 537.56 22.7705 573.362 60.6548C580.57 68.2903 613.355 107.75 587.512 161.973C571.2 196.226 639.546 228.931 663.814 268.043C725.566 367.493 664.775 434.691 664.215 435.973Z" fill="#EBF3FA"/>
<g opacity="0.8">
<path opacity="0.8" d="M306.838 171.851C306.838 177.217 306.357 182.477 305.423 187.603C303.18 199.857 298.401 211.23 291.62 221.135C275.868 244.149 249.411 259.26 219.429 259.26C183.761 259.26 153.058 237.875 139.469 207.226C137.68 203.194 136.185 198.976 135.011 194.651C133.035 187.389 131.994 179.727 131.994 171.824C131.994 165.444 132.688 159.223 133.969 153.216C133.969 153.136 133.996 153.083 134.023 153.003C137.654 136.423 145.983 121.633 157.544 110.046C160.827 106.762 164.352 103.745 168.143 100.995C169.931 99.687 171.8 98.4589 173.696 97.2842C186.991 89.0879 202.663 84.3891 219.429 84.3891C221.645 84.3891 223.861 84.4692 226.023 84.6294C229.094 84.843 232.137 85.2435 235.101 85.7774C247.649 88.0467 259.236 92.9858 269.301 100.007C275.575 104.359 281.235 109.538 286.174 115.359C288.763 118.402 291.139 121.659 293.302 125.05C294.637 127.159 295.892 129.348 297.04 131.564C299.816 136.93 302.059 142.617 303.714 148.571C305.77 156.019 306.838 163.815 306.838 171.851Z" fill="#D7E5FF"/>
<g opacity="0.8">
<path opacity="0.8" d="M189.74 132.739C186.243 138.265 191.209 147.85 180.743 145.234C170.278 142.617 163.87 141.443 163.31 147.263C162.722 153.083 171.159 153.083 171.159 159.197C171.159 165.31 167.368 167.313 161.574 164.429C155.754 161.519 154.099 157.301 147.318 159.917C140.563 162.534 136.638 160.798 135.117 155.566C134.85 154.658 134.476 153.91 134.022 153.27C134.022 153.19 134.049 153.136 134.075 153.056C137.706 136.477 146.036 121.686 157.596 110.099C160.88 106.815 164.404 103.799 168.195 101.049C169.984 99.7405 171.853 98.5124 173.748 97.3377C176.472 97.4445 179.729 98.459 182.505 101.903C188.619 109.459 192.677 105.694 191.236 114.398C189.767 123.128 192.117 124.276 197.056 123.982C201.995 123.688 207.815 123.688 208.402 127.48C208.936 131.271 193.238 127.213 189.74 132.739Z" fill="#AEC3FF"/>
<path opacity="0.8" d="M190.355 173.106C190.355 173.106 185.069 179.246 180.53 175.722C175.991 172.198 177.353 169.982 170.705 172.198C164.057 174.414 161.121 170.757 157.703 173.533C154.286 176.31 157.063 176.657 154.687 182.53C152.337 188.404 147.451 189.365 151.216 195.238C154.98 201.112 162.002 198.095 165.686 201.192C169.37 204.289 168.169 207.333 172.788 208.614C177.406 209.869 181.812 205.384 181.892 210.963C181.972 216.543 180.21 221.963 185.923 227.142C191.663 232.322 190.595 233.496 196.469 236.006C202.369 238.542 209.417 236.246 208.509 232.722C207.628 229.171 200.019 228.477 199.859 224.473C199.699 220.468 203.757 220.815 202.129 215.662C200.5 210.51 205.039 207.733 203.49 204.422C201.968 201.085 193.265 199.964 194.279 196.6C195.294 193.263 203.17 196.093 203.597 189.018C204.024 181.943 199.245 179.407 199.939 172.492C200.714 165.55 191.156 168.861 190.355 173.106Z" fill="#AEC3FF"/>
<path opacity="0.8" d="M306.837 171.851C306.837 177.218 306.356 182.477 305.422 187.603C303.179 199.857 298.4 211.231 291.619 221.136C289.296 221.883 286.947 221.883 284.624 220.949C273.732 216.597 281.794 204.823 286.146 198.923C290.498 193.049 279.392 195.666 271.329 190.193C263.266 184.746 272.21 170.143 263.907 172.546C255.604 174.948 245.592 177.992 240.786 169.929C235.981 161.866 245.138 160.558 241 153.804C236.862 147.049 243.403 143.125 251.679 142.457C259.956 141.816 258.861 135.916 269.113 135.035C279.365 134.154 279.151 147.236 290.471 146.382C301.818 145.501 301.311 148.117 301.311 148.117C302.138 148.09 302.912 148.277 303.687 148.624C305.769 156.02 306.837 163.815 306.837 171.851Z" fill="#AEC3FF"/>
<path opacity="0.8" d="M297.066 131.644C287.642 136.236 283.851 123.768 275.788 127.506C267.672 131.297 269.087 124.009 262.706 119.363C256.299 114.718 243.51 123.154 244.098 115.866C244.685 108.604 254.27 110.633 256.299 104.813C258.328 98.9929 267.645 100.461 267.645 100.461C268.179 100.248 268.74 100.141 269.327 100.088C275.601 104.439 281.261 109.619 286.2 115.439C288.79 118.482 291.166 121.739 293.328 125.13C294.663 127.239 295.918 129.402 297.066 131.644Z" fill="#AEC3FF"/>
<path opacity="0.8" d="M217.639 106.575C217.639 106.575 222.579 99.4468 214.729 97.3376C206.88 95.2285 207.014 97.9784 200.927 97.3376C194.813 96.6969 192.437 101.422 197.002 106.575C201.567 111.728 205.278 121.633 209.417 116.347C213.581 111.06 212.78 107.082 217.639 106.575Z" fill="#AEC3FF"/>
</g>
</g>
<path d="M324.619 266.041L311.243 425.24C311.243 425.24 309.828 434.878 317.01 434.905C328.81 434.932 375.745 434.905 375.745 434.905C375.745 434.905 366.855 432.903 366.961 428.364C367.095 423.024 382.606 264.519 382.606 264.519L324.619 266.041Z" fill="#7599EA"/>
<path d="M380.177 432.075C377.855 432.075 332.415 432.155 320.908 432.021C315.889 431.968 315.008 427.563 314.981 424.733C314.954 423.371 315.141 422.357 315.141 422.357L315.488 418.219L316.369 407.673L317.144 398.355L318.158 386.395L319.013 376.276L328.517 263.158L386.531 261.663C386.531 261.663 379.99 328.007 375.372 376.276C374.864 381.669 374.357 386.822 373.903 391.628C373.743 393.176 373.61 394.671 373.476 396.139C373.049 400.705 372.648 404.896 372.301 408.607C372.115 410.556 371.954 412.372 371.794 414.027C371.207 420.541 370.86 424.706 370.86 425.48C370.86 425.934 370.886 426.361 370.966 426.762C371.954 431.861 379.296 432.075 380.177 432.075Z" fill="#90AFF4"/>
<path d="M183.761 179.434L216.386 310.413L220.845 328.354L236.036 389.385H518.205L462.22 179.434H183.761Z" fill="#AEC3FF"/>
<path d="M183.762 179.433L179.25 180.928L230.029 393.924L236.036 389.385L183.762 179.433Z" fill="#90AFF4"/>
<path d="M230.029 393.924H510.463L518.205 389.385H236.036L230.029 393.924Z" fill="#7599EA"/>
<path d="M328.505 434.982H389.216V432.098H328.505V434.982Z" fill="#AEC3FF"/>
<path d="M373.797 393.924L373.476 396.14L316.37 407.673L317.144 398.355L317.518 393.924H373.797Z" fill="#5888DD"/>
<path opacity="0.4" d="M380.178 432.075C377.855 432.075 332.415 432.155 320.908 432.022C315.889 431.968 315.008 427.563 314.981 424.733L371.821 414.027C371.234 420.542 370.887 424.706 370.887 425.481C370.887 425.934 370.913 426.362 370.993 426.762C371.955 431.861 379.296 432.075 380.178 432.075Z" fill="#5888DD"/>
<path d="M183.761 179.434H462.22L507.419 348.164H225.757L183.761 179.434Z" fill="#C2D5FF"/>
<path d="M494.284 340.848H233.553L224.236 303.738L220.632 289.375L219.163 283.501L209.579 245.377L209.071 243.375L204.025 223.218L201.756 214.194L199.834 206.505L195.295 188.457H452.262L457.254 206.505L459.363 214.194L461.846 223.218L478.239 282.647L479.627 287.693L480.268 290.016L491.588 331.05L494.284 340.848Z" fill="#739AF0"/>
<path d="M457.254 206.505H199.834L195.295 188.457H452.262L457.254 206.505Z" fill="#607CF4"/>
<path d="M205.92 196.627C205.6 195.372 206.374 194.384 207.602 194.384C208.857 194.384 210.112 195.399 210.432 196.627C210.753 197.882 209.979 198.869 208.75 198.869C207.496 198.869 206.241 197.855 205.92 196.627Z" fill="#E9F3FE"/>
<path d="M213.423 196.627C213.102 195.372 213.877 194.384 215.105 194.384C216.359 194.384 217.614 195.399 217.935 196.627C218.255 197.882 217.481 198.869 216.253 198.869C214.998 198.869 213.743 197.855 213.423 196.627Z" fill="#E9F3FE"/>
<path d="M221.485 196.627C221.165 195.372 221.939 194.384 223.167 194.384C224.422 194.384 225.677 195.399 225.997 196.627C226.317 197.882 225.543 198.869 224.315 198.869C223.06 198.869 221.805 197.855 221.485 196.627Z" fill="#E9F3FE"/>
<path opacity="0.5" d="M331.56 348.164L236.116 389.866L225.757 348.164H331.56Z" fill="#90AFF4"/>
<path d="M248.583 135.729C243.991 137.438 241.028 141.416 241.028 145.821V243.134C241.028 263.051 250.479 281.686 266.311 293.033L323.471 329.662C327.262 332.092 332.441 332.092 336.259 329.662L393.419 293.033C409.251 281.686 418.702 263.024 418.702 243.134V146.061C418.702 141.549 415.551 137.491 410.746 135.836C341.305 112.075 313.486 111.434 248.583 135.729Z" fill="#2F539B"/>
<path d="M410.746 135.836C376.947 124.276 352.999 118.189 329.852 117.788V331.478C332.094 331.478 334.337 330.863 336.232 329.662L393.392 293.033C409.224 281.686 418.675 263.024 418.675 243.134V146.061C418.702 141.549 415.552 137.491 410.746 135.836Z" fill="#233862"/>
<path d="M335.672 210.991H322.67C311.003 210.991 301.526 201.513 301.526 189.846V187.31C301.526 175.643 311.003 166.165 322.67 166.165H335.672C347.339 166.165 356.817 175.643 356.817 187.31V189.846C356.817 201.513 347.339 210.991 335.672 210.991ZM322.67 174.628C315.675 174.628 309.989 180.315 309.989 187.31V189.846C309.989 196.841 315.675 202.527 322.67 202.527H335.672C342.667 202.527 348.354 196.841 348.354 189.846V187.31C348.354 180.315 342.667 174.628 335.672 174.628H322.67Z" fill="#5888DD"/>
<path d="M341.172 270.073H320.641C301.419 270.073 285.854 254.508 285.854 235.286V201.326C285.854 197.028 289.325 193.557 293.623 193.557H363.892C369.392 193.557 373.85 198.015 373.85 203.515V237.368C373.85 255.442 359.22 270.073 341.172 270.073Z" fill="#5888DD"/>
<path d="M329.853 227.997C336.193 227.997 341.333 222.857 341.333 216.517C341.333 210.177 336.193 205.037 329.853 205.037C323.512 205.037 318.373 210.177 318.373 216.517C318.373 222.857 323.512 227.997 329.853 227.997Z" fill="#233862"/>
<path d="M329.853 221.883C331.214 221.883 332.336 223.004 332.336 224.366V243.481C332.336 244.843 331.214 245.964 329.853 245.964C328.491 245.964 327.37 244.843 327.37 243.481V224.366C327.37 222.978 328.491 221.883 329.853 221.883Z" fill="#233862"/>
<path d="M460.323 77.314C459.068 77.7945 458.241 78.8625 458.241 80.0639V106.708C458.241 112.155 460.831 117.254 465.156 120.378L480.801 130.416C481.842 131.083 483.257 131.083 484.298 130.416L499.943 120.378C504.268 117.281 506.858 112.155 506.858 106.708V80.144C506.858 78.9159 506.003 77.7945 504.695 77.3407C485.713 70.8264 478.077 70.6662 460.323 77.314Z" fill="#AEC3FF"/>
<path opacity="0.4" d="M504.722 77.3406C495.458 74.1635 488.917 72.5083 482.59 72.4015V130.896C483.204 130.896 483.818 130.736 484.352 130.389L499.997 120.351C504.322 117.254 506.912 112.128 506.912 106.681V80.1172C506.885 78.9158 506.031 77.7944 504.722 77.3406Z" fill="#5888DD"/>
<path d="M102.83 247.454C103.058 247.224 103.057 246.852 102.826 246.624C102.596 246.395 102.224 246.397 101.996 246.627C101.767 246.858 101.769 247.23 101.999 247.458C102.23 247.686 102.602 247.685 102.83 247.454Z" fill="#D5E5FB"/>
<path d="M100.945 249.382C101.173 249.151 101.171 248.78 100.941 248.551C100.71 248.323 100.338 248.325 100.11 248.555C99.8817 248.786 99.8835 249.158 100.114 249.386C100.344 249.614 100.716 249.612 100.945 249.382Z" fill="#D5E5FB"/>
<path d="M99.0122 251.325C99.2405 251.094 99.2387 250.722 99.0083 250.494C98.7779 250.266 98.406 250.267 98.1777 250.498C97.9494 250.728 97.9511 251.1 98.1815 251.329C98.412 251.557 98.7839 251.555 99.0122 251.325Z" fill="#D5E5FB"/>
<path d="M97.1236 253.249C97.3519 253.018 97.3502 252.646 97.1198 252.418C96.8894 252.19 96.5175 252.191 96.2892 252.422C96.0608 252.652 96.0625 253.024 96.2929 253.253C96.5233 253.481 96.8952 253.479 97.1236 253.249Z" fill="#D5E5FB"/>
<path d="M95.222 255.149C95.4503 254.919 95.4485 254.547 95.218 254.319C94.9875 254.09 94.6156 254.092 94.3873 254.323C94.1591 254.553 94.1608 254.925 94.3913 255.153C94.6218 255.382 94.9937 255.38 95.222 255.149Z" fill="#D5E5FB"/>
<path d="M93.3057 257.117C93.5341 256.887 93.5323 256.515 93.3019 256.287C93.0714 256.059 92.6996 256.06 92.4712 256.291C92.2429 256.521 92.2447 256.893 92.4751 257.121C92.7056 257.35 93.0774 257.348 93.3057 257.117Z" fill="#D5E5FB"/>
<path d="M91.4648 258.936C91.6931 258.705 91.6914 258.334 91.4609 258.105C91.2305 257.877 90.8586 257.879 90.6303 258.109C90.402 258.34 90.4037 258.711 90.6342 258.94C90.8646 259.168 91.2365 259.166 91.4648 258.936Z" fill="#D5E5FB"/>
<path d="M89.5793 260.864C89.8075 260.634 89.8057 260.262 89.5752 260.033C89.3448 259.805 88.9729 259.807 88.7446 260.037C88.5164 260.268 88.5181 260.64 88.7486 260.868C88.9791 261.096 89.351 261.095 89.5793 260.864Z" fill="#D5E5FB"/>
<path d="M87.6571 262.808C87.8855 262.577 87.8838 262.206 87.6534 261.977C87.423 261.749 87.0511 261.751 86.8227 261.981C86.5944 262.211 86.5961 262.583 86.8265 262.812C87.0569 263.04 87.4288 263.038 87.6571 262.808Z" fill="#D5E5FB"/>
<path d="M85.7435 264.7C85.9718 264.47 85.97 264.098 85.7396 263.87C85.5091 263.642 85.1372 263.643 84.9089 263.874C84.6807 264.104 84.6824 264.476 84.9129 264.704C85.1434 264.933 85.5153 264.931 85.7435 264.7Z" fill="#D5E5FB"/>
<path d="M83.8579 266.626C84.0862 266.395 84.0845 266.024 83.854 265.795C83.6236 265.567 83.2517 265.569 83.0234 265.799C82.7951 266.03 82.7968 266.401 83.0272 266.63C83.2577 266.858 83.6296 266.856 83.8579 266.626Z" fill="#D5E5FB"/>
<path d="M81.9216 268.576C82.1499 268.346 82.1482 267.974 81.9177 267.746C81.6873 267.517 81.3154 267.519 81.0871 267.75C80.8588 267.98 80.8605 268.352 81.091 268.58C81.3214 268.809 81.6933 268.807 81.9216 268.576Z" fill="#D5E5FB"/>
<path d="M116.457 246.472C123.446 246.472 129.111 240.806 129.111 233.817C129.111 226.828 123.446 221.162 116.457 221.162C109.467 221.162 103.802 226.828 103.802 233.817C103.802 240.806 109.467 246.472 116.457 246.472Z" fill="#C6DCF7"/>
<path d="M116.456 232.802C118.697 232.802 120.514 230.986 120.514 228.744C120.514 226.503 118.697 224.686 116.456 224.686C114.214 224.686 112.397 226.503 112.397 228.744C112.397 230.986 114.214 232.802 116.456 232.802Z" fill="#EBF3FA"/>
<path d="M116.456 232.803C112.531 232.803 109.354 235.98 109.354 239.904H123.584C123.557 236.006 120.38 232.803 116.456 232.803Z" fill="#EBF3FA"/>
<path d="M70.6159 272.903L70.1353 271.728C69.628 270.473 68.4266 269.672 67.0917 269.672H58.4417V275.172V298.613H94.2434V275.172H73.9798C72.5114 275.172 71.1765 274.264 70.6159 272.903Z" fill="#C6DCF7"/>
<path d="M81.696 282.888H80.4946C80.5213 282.701 80.548 282.487 80.548 282.3V281.9C80.548 280.004 79.0263 278.483 77.1307 278.483H75.0216C73.126 278.483 71.6043 280.004 71.6043 281.9V282.3C71.6043 282.514 71.631 282.701 71.6577 282.888H70.3228C69.6286 282.888 69.068 283.448 69.068 284.143V289.642C69.068 292.739 71.5776 295.276 74.7012 295.276H78.0117C80.9218 295.276 83.2979 292.899 83.2979 289.989V284.516C83.3246 283.609 82.6038 282.888 81.696 282.888ZM76.5968 288.414V290.977C76.5968 291.191 76.4099 291.378 76.1963 291.378C75.9827 291.378 75.7958 291.191 75.7958 290.977V288.414C74.9682 288.227 74.3541 287.48 74.3541 286.599C74.3541 285.584 75.1818 284.73 76.223 284.73C77.2375 284.73 78.0918 285.557 78.0918 286.599C78.0651 287.48 77.4244 288.227 76.5968 288.414ZM79.1864 282.274C79.1864 282.487 79.1597 282.674 79.1064 282.861H73.0727C73.0193 282.674 72.9926 282.461 72.9926 282.274V281.873C72.9926 280.752 73.9003 279.817 75.0483 279.817H77.1574C78.2787 279.817 79.2131 280.725 79.2131 281.873V282.274H79.1864Z" fill="#EBF3FA"/>
<path d="M175.511 270.633C175.511 270.633 176.178 263.264 167.955 263.264C167.955 263.264 170.438 263.932 171.746 265.293C171.746 265.293 166.487 262.223 160.774 266.949C155.06 271.674 158.611 283.555 156.876 285.824C155.14 288.067 148.386 288.52 149.187 295.809C150.014 303.097 170.652 312.228 169.344 318.262C169.344 318.262 177.433 306.381 171.64 300.935C171.64 300.935 174.47 303.578 174.737 306.755C174.737 306.755 175.511 300.588 171.586 298.612C168.115 296.877 165.259 290.496 165.579 289.348C165.9 288.227 175.511 270.633 175.511 270.633Z" fill="#2C3A64"/>
<path d="M167.422 306.007C167.422 306.007 173.562 331.45 179.596 336.523C183.227 339.593 194.013 346.588 194.013 346.588L189.528 348.217C189.528 348.217 174.577 343.171 171.213 339.219C167.876 335.268 158.692 315.538 158.692 315.538L167.422 306.007Z" fill="#FFB27D"/>
<path d="M202.929 355.906L201.487 352.328C199.939 348.484 196.201 345.974 192.063 345.974H165.419V362.9V435.118H275.681V362.9H213.288C208.723 362.9 204.638 360.124 202.929 355.906Z" fill="#2F539B"/>
<path d="M109.621 350.7C109.675 350.806 109.728 350.886 109.781 350.993C111.116 353.343 114.213 359.056 117.604 365.33C119.206 368.293 120.888 371.39 122.49 374.327C125.239 379.346 127.749 383.832 129.217 386.208C130.713 388.61 131.807 390.292 132.234 390.987C132.368 391.2 132.394 391.44 132.368 391.681C132.208 393.817 132.261 395.899 132.475 397.981C134.53 418.379 148.28 429.325 148.28 429.325L152.364 429.939C152.364 429.939 146.571 408.5 144.862 396.38C144.569 394.324 144.462 392.669 144.542 391.574C144.836 388.424 144.275 383.778 143.234 378.465C141.338 369.014 137.868 357.401 134.877 348.083C134.69 347.496 128.924 326.672 128.924 326.672C124.091 330.89 106.471 332.625 106.471 332.625C106.471 332.625 103.534 339.887 109.621 350.7Z" fill="#2F539B"/>
<path d="M160.987 435.118H143.9C143.9 435.118 143.5 432.528 144.381 430.552C145.235 428.657 146.463 428.604 144.541 425.64C145.636 426.761 149.106 427.215 151.589 426.895C151.883 427.375 153.538 430.686 154.553 431.407C155.674 432.181 160.64 431.887 160.987 435.118Z" fill="#233862"/>
<path d="M109.621 350.7C109.674 350.807 109.728 350.887 109.781 350.994C111.116 353.343 118.405 366.772 121.795 373.046C117.844 356.841 120.594 340.635 120.594 340.635L109.621 350.7Z" fill="#233862"/>
<path d="M173.188 269.618C173.295 269.165 163.443 274.077 162.936 274.638C158.317 279.764 159.626 286.465 162.269 286.518C163.977 286.572 163.63 289.375 163.63 289.375L182.532 281.365C182.559 281.365 180.29 268.097 173.188 269.618Z" fill="#2C3A64"/>
<path d="M166.834 302.19C166.834 302.19 169.718 307.93 169.344 312.602C169.344 312.602 165.873 318.075 156.876 319.463C156.876 319.463 164.618 302.19 166.834 302.19Z" fill="#739AF0"/>
<path d="M122.943 333.907L122.997 330.703C116.643 331.504 101.051 323.094 101.051 323.094C101.051 323.094 94.4035 327.526 93.4958 340.154C93.0419 346.321 90.2387 372.432 89.9183 380.227C89.8115 383.057 89.7581 385.06 89.7581 385.861C89.7581 386.101 89.6513 386.314 89.4911 386.528C88.1829 388.21 87.0349 389.972 86.0471 391.814C76.3291 409.889 81.4284 434.424 81.4284 434.424L83.671 433.863C83.671 433.863 91.8672 408.42 97.2335 397.421C98.1412 395.552 98.9689 394.11 99.663 393.256C101.692 390.8 103.801 386.635 105.91 381.642C109.862 372.165 122.943 333.907 122.943 333.907Z" fill="#2F539B"/>
<path d="M94.9906 435.118H77.904C77.904 435.118 77.5036 432.529 78.3846 430.553C79.2389 428.657 80.5738 427.803 80.2534 425.507C81.3481 426.628 83.1101 427.883 85.5663 427.536C85.86 428.017 87.5152 430.66 88.5298 431.381C89.6778 432.181 94.6436 431.888 94.9906 435.118Z" fill="#233862"/>
<path d="M155.728 323.147C153.432 323.548 156.102 325.363 152.952 325.71C148.467 326.191 143.821 326.538 141.392 327.499C140.511 327.846 139.923 328.3 139.736 328.834C138.695 332.011 132.021 337.431 132.021 337.431C102.279 336.069 100.384 322.827 100.384 322.827C119.686 304.085 136.105 293.86 149.668 292.605C152.978 292.285 157.41 292.712 159.519 293.646C164.272 295.755 166.861 302.19 166.861 302.19C166.861 302.19 164.459 321.652 155.728 323.147Z" fill="#739AF0"/>
<path d="M152.951 325.71C148.466 326.191 143.82 326.538 141.391 327.499C140.403 312.682 147.398 301.522 147.398 301.522C147.398 301.522 151.963 320.077 152.951 325.71Z" fill="#5A7DE0"/>
<path d="M156.823 299.013C156.823 299.013 145.53 298.399 143.528 305.474C141.525 312.548 147.292 340.848 148.547 343.785C150.816 349.098 162.216 364.93 162.216 364.93L165.874 363.034C165.874 363.034 158.532 339.86 156.877 337.564C154.314 333.96 160.214 302.083 156.823 299.013Z" fill="#FFB27D"/>
<path d="M165.874 363.034C165.874 363.034 166.808 363.862 167.582 364.769C168.33 365.704 167.662 366.024 169.851 370.242C169.851 370.242 169.745 370.83 169.264 370.723C168.784 370.616 167.155 368.988 166.301 369.094C166.301 369.094 165.687 369.602 165.633 371.23C165.58 372.779 165.58 376.169 165.286 376.81C165.019 377.451 163.07 374.114 162.082 371.737C161.228 369.628 162.056 362.527 162.056 362.527L165.874 363.034Z" fill="#FFB27D"/>
<path d="M141.311 314.951C141.338 315.112 151.99 316.9 158.665 313.536C158.665 313.536 164.245 296.103 156.289 296.93C148.333 297.758 143.634 300.268 143.42 304.085C143.207 307.876 141.311 314.951 141.311 314.951Z" fill="#739AF0"/>
<path d="M159.253 294.874C159.359 296.289 159.546 297.944 161.388 299.84C162.803 301.308 164.859 302.43 166.274 300.988C166.995 300.267 167.983 299.173 168.49 298.292C169.718 296.156 171.213 293.966 171.213 293.966L164.832 288.36L164.459 288.013C162.777 290.923 161.148 292.338 159.706 293.406C159.253 293.806 159.199 294.34 159.253 294.874Z" fill="#FFB27D"/>
<path d="M171.213 293.994C171.213 293.994 169.744 296.156 168.49 298.319C164.512 295.863 164.512 290.95 164.832 288.414L171.213 293.994Z" fill="#ED985F"/>
<path d="M171.4 296.823C171.4 296.823 161.762 291.457 165.179 285.504C168.623 279.55 169.691 274.851 175.992 278.028C182.292 281.205 182.159 284.169 181.518 286.438C180.851 288.681 173.989 298.052 171.4 296.823Z" fill="#FFB27D"/>
<path d="M183.146 282.941C182.692 280.298 181.357 280.057 180.423 280.217C176.872 274.317 171.052 276.613 171.052 276.613C167.955 280.511 163.443 281.179 163.443 281.179C163.443 281.179 164.564 283.261 169.183 284.543C170.598 284.943 172.2 284.703 173.722 284.169C170.518 285.958 167.181 286.625 167.181 286.625C173.268 287.186 179.035 281.632 179.649 281.045C179.942 281.899 180.423 283.715 180.129 285.023C179.729 286.812 178.127 290.069 179.115 290.469C179.088 290.496 183.787 286.892 183.146 282.941Z" fill="#2C3A64"/>
<path d="M195.775 346.615C195.775 346.615 193.078 348.644 195.107 349.952C197.136 351.26 200.767 351.634 200.767 350.753C200.847 347.87 199.379 345.814 195.775 346.615Z" fill="#FFB27D"/>
<path d="M236.435 386.555H232.965C233.072 385.994 233.125 385.407 233.125 384.819V383.618C233.125 378.145 228.666 373.686 223.193 373.686H217.08C211.607 373.686 207.148 378.145 207.148 383.618V384.819C207.148 385.407 207.201 385.994 207.308 386.555H203.437C201.408 386.555 199.779 388.183 199.779 390.212V406.151C199.779 415.175 207.095 422.49 216.118 422.49H225.756C234.246 422.49 241.108 415.629 241.108 407.139V391.227C241.108 388.664 239.025 386.555 236.435 386.555ZM221.618 402.6V409.995C221.618 410.636 221.084 411.17 220.443 411.17C219.803 411.17 219.269 410.636 219.269 409.995V402.6C216.866 402.066 215.051 399.904 215.051 397.341C215.051 394.35 217.453 391.948 220.443 391.948C223.434 391.948 225.836 394.35 225.836 397.341C225.836 399.93 224.021 402.066 221.618 402.6ZM229.147 384.819C229.147 385.433 229.067 385.994 228.88 386.555H211.366C211.206 385.994 211.099 385.433 211.099 384.819V383.618C211.099 380.334 213.769 377.664 217.053 377.664H223.167C226.451 377.664 229.12 380.334 229.12 383.618V384.819H229.147Z" fill="#5888DD"/>
<path d="M644.512 435.279H510.65C491.988 413.841 492.762 387.73 518.232 364.022C522.797 359.777 530.78 355.185 537.214 353.637C549.094 350.807 562.55 350.14 562.657 350.086C562.684 350.059 577.634 348.004 581.879 342.824C595.121 326.726 598.512 324.43 598.512 324.43C611.994 321.786 623.501 321.012 632.018 325.791C639.92 330.223 645.26 339.407 647.262 356.28C647.636 359.484 647.903 362.928 648.037 366.692C648.517 380.388 651.214 392.589 652.815 402.894C655.138 417.845 656.767 429.218 644.512 435.279Z" fill="#607CF4"/>
<path d="M625.343 342.904C617.174 347.363 616.266 362.046 603.451 365.837C590.636 369.629 568.904 369.281 556.57 382.657C544.662 395.552 531.554 362.741 537.214 353.503C549.094 350.673 562.55 350.032 562.657 349.979C562.683 349.952 580.918 349.899 585.19 344.746C598.432 328.727 598.512 324.429 598.512 324.429C611.994 321.813 623.501 321.039 632.018 325.791C641.415 335.482 633.539 338.445 625.343 342.904Z" fill="#2F539B"/>
<path d="M652.815 402.52C634.046 379.08 595.468 411.037 585.483 410.129C576.299 409.302 603.37 377.264 636.956 372.485C650.519 370.563 647.288 356.52 647.262 356.093C647.635 359.27 647.902 362.714 648.036 366.478C648.543 380.121 651.24 392.268 652.815 402.52Z" fill="#2F539B"/>
<path d="M548.08 415.282C546.772 417.818 546.478 422.464 546.078 424.039C545.677 425.614 538.816 430.98 538.202 430.713C536.707 430.046 538.148 427.403 539.056 425.507C539.083 425.427 539.136 425.347 539.163 425.267C540.071 423.345 539.296 419.02 539.75 416.804C540.231 414.588 537.961 408.581 537.961 408.581L541.753 403.775C541.753 403.775 544.422 408.848 546.345 409.782C546.692 409.942 546.985 410.156 547.279 410.37C548.614 411.464 549.175 413.2 548.08 415.282Z" fill="#FFB27D"/>
<path d="M599.046 287.586C595.389 287.907 591.971 289.535 589.301 292.098C587.62 293.7 585.751 295.916 584.603 298.532C582.093 304.246 582.947 310.92 581.532 314.578C580.091 318.236 579.236 318.876 581.532 320.532C583.828 322.187 584.202 323.762 581.479 325.524C578.729 327.286 576.727 332.732 584.362 333.213C591.998 333.694 606.842 330.917 608.738 329.502C610.633 328.087 615.839 325.978 618.349 322.214C623.341 314.658 619.363 309.559 615.519 308.277C609.619 306.275 611.781 286.518 599.046 287.586Z" fill="#163560"/>
<path d="M589.007 319.25C589.007 319.25 581.425 336.363 579.85 337.859C578.275 339.354 570.88 342.264 571.547 344.747C572.215 347.23 577.794 349.659 580.117 349.072C582.44 348.484 588.34 338.419 588.34 338.419L589.007 319.25Z" fill="#739AF0"/>
<path d="M572.136 346.268C572.136 346.268 572.536 343.332 579.745 342.37C583.723 341.836 590.397 330.73 590.397 330.73L583.723 348.271L577.262 351.074L572.136 346.268Z" fill="#5A7DE0"/>
<path d="M575.072 351.795C575.072 351.795 537.641 349.178 532.515 355.105C528.457 359.831 535.853 411.304 535.853 411.304C535.853 411.304 546.024 411.598 546.852 408.901C546.852 408.901 544.957 383.912 546.532 379.587C548.134 375.262 547.119 369.282 547.119 369.282C547.119 369.282 567.036 372.272 573.363 370.75C579.69 369.255 575.072 351.795 575.072 351.795Z" fill="#233862"/>
<path d="M534.731 430.126C532.088 431.221 528.858 434.585 527.55 435.546C526.241 436.507 517.511 436.16 517.244 435.573C516.497 434.024 519.567 432.93 521.489 432.022C521.516 432.022 521.543 431.995 521.569 431.995C523.491 431.034 525.627 427.323 527.389 425.961C529.178 424.573 531.314 418.539 531.314 418.539L537.321 417.311C537.321 417.311 536.093 422.918 536.947 424.867C537.027 425.054 537.107 425.241 537.161 425.427C537.721 427.19 537.107 429.138 534.731 430.126Z" fill="#FFB27D"/>
<path d="M591.518 353.61C591.518 353.61 550.67 357.749 547.093 361.94C543.515 366.105 529.392 420.302 529.392 420.302C529.392 420.302 533.557 422.624 537.348 420.462C537.348 420.462 548.161 402.067 552.94 396.3C557.718 390.534 559.427 375.449 561.963 373.821C562.658 373.394 586.685 376.09 595.496 369.335C604.306 362.581 591.518 353.61 591.518 353.61Z" fill="#2A4E96"/>
<path d="M609.324 353.69C608.283 355.692 607.135 357.588 605.907 359.297C602.836 363.568 599.312 366.612 595.468 367.413C589.888 368.561 571.226 357.721 572.161 351.741C572.668 348.484 583.053 342.637 584.735 340.288C586.417 337.938 587.405 326.085 588.313 321.252C588.98 317.648 591.196 317.274 594 316.34C605.827 312.282 614.263 316.58 614.263 316.58C619.683 319.624 616.666 339.647 609.324 353.69Z" fill="#739AF0"/>
<path d="M608.738 304.246C608.738 304.246 609.379 301.336 609.619 298.239C609.806 296.023 606.442 288.815 601.209 289.108C601.209 289.108 598.887 289.562 596.804 291.271C595.149 292.632 592.853 295.436 596.35 302.217L597.312 304.513L608.738 304.246Z" fill="#163560"/>
<path d="M598.166 315.913C598.326 317.141 599.447 317.862 601.877 317.702C604.359 317.541 607.883 316.046 607.59 314.898C607.323 313.884 606.228 311.534 605.774 305.554L605.32 305.688L597.738 307.823C597.738 307.823 598.112 310.226 598.299 312.522C598.459 314.391 598.085 315.272 598.166 315.913Z" fill="#FFB27D"/>
<path d="M597.765 307.797C597.765 307.797 598.139 310.2 598.326 312.496C602.624 312.042 604.6 307.93 605.374 305.661L597.765 307.797Z" fill="#F4A269"/>
<path d="M597.605 311.294C597.605 311.294 607.537 308.811 605.881 302.644C604.226 296.477 604.413 292.018 598.005 293.353C591.598 294.688 591.011 297.358 591.064 299.547C591.091 301.736 594.962 311.801 597.605 311.294Z" fill="#FFB27D"/>
<path d="M593.44 294.421C593.44 294.421 596.777 300.775 603.051 301.443C606.735 301.843 607.75 304.273 607.75 304.273C607.75 304.273 606.655 297.331 604.787 293.113C604.787 293.113 594.561 290.416 593.44 294.421Z" fill="#163560"/>
<path d="M594.588 295.249C594.588 295.249 592.426 297.465 591.731 299.04C590.744 301.362 592.666 306.221 593.467 307.289C593.467 307.289 588.848 299.44 590.396 296.05C592.052 292.445 594.588 295.249 594.588 295.249Z" fill="#163560"/>
<path d="M564.313 352.408C564.313 352.408 562.337 354.491 562.097 354.624C560.789 355.238 559.134 354.891 558.333 355.078C557.532 355.292 557.665 354.785 558.253 354.384C558.84 353.984 560.282 354.144 559.694 353.984C559.107 353.823 555.903 353.236 554.702 353.556C552.806 354.064 551.284 353.476 551.178 353.263C551.071 353.049 555.529 350.887 556.811 350.967C558.092 351.047 561.75 350.86 561.75 350.86L564.313 352.408Z" fill="#FFB27D"/>
<path d="M617.601 320.425C617.601 320.425 618.776 349.525 615.358 353.61C612.048 357.561 597.871 354.892 591.731 353.557C591.437 353.503 590.796 353.557 590.369 353.957C589.889 354.384 589.675 351.047 589.675 351.047C589.675 351.047 608.177 348.351 609.405 348.004C611.193 347.496 609.939 327.446 609.939 327.446L617.601 320.425Z" fill="#FFB27D"/>
<path d="M591.144 353.183C591.144 353.183 589.489 354.865 588.848 355.72C588.207 356.574 583.802 358.122 583.722 357.669C583.615 357.215 585.697 355.8 585.884 355.293C586.071 354.785 588.34 352.142 589.702 351.849C591.09 351.555 591.144 353.183 591.144 353.183Z" fill="#FFB27D"/>
<path d="M589.702 351.047C589.702 351.047 582.921 352.622 581.746 353.076C580.598 353.556 578.142 357 579.13 357.534C579.744 357.855 582.414 356.44 583.776 356.146C585.137 355.852 588.982 356.52 590.744 353.023C590.957 352.649 589.702 351.047 589.702 351.047Z" fill="#FFB27D"/>
<path d="M534.731 430.126C532.088 431.221 528.858 434.585 527.55 435.546C526.241 436.507 517.511 436.16 517.244 435.573C516.497 434.024 519.567 432.93 521.489 432.022C521.516 432.022 521.543 431.995 521.569 431.995L521.836 431.915C521.836 431.915 525.601 433.25 528.724 431.915C531.154 430.874 534.785 426.976 537.161 425.401C537.721 427.19 537.107 429.139 534.731 430.126Z" fill="#2A4E96"/>
<path d="M548.08 415.282C546.772 417.818 546.478 422.464 546.078 424.039C545.677 425.614 538.816 430.98 538.202 430.713C536.707 430.046 538.148 427.403 539.056 425.507C539.59 425.481 540.311 425.294 541.165 424.733C542.874 423.585 545.811 419.26 546.051 416.697C546.265 414.615 546.131 411.624 547.279 410.37C548.614 411.464 549.175 413.2 548.08 415.282Z" fill="#193B72"/>
<path d="M580.946 358.416H551.365L542.448 336.283H572.002L580.946 358.416Z" fill="#C95757"/>
<path d="M551.018 357.562H590.076V358.416H551.365L551.018 357.562Z" fill="#C95757"/>
<path d="M558.841 347.336C558.627 346.562 559.055 345.921 559.855 345.921C560.63 345.921 561.457 346.562 561.671 347.336C561.885 348.11 561.457 348.751 560.656 348.751C559.855 348.751 559.055 348.137 558.841 347.336Z" fill="white"/>
<path d="M609.324 353.69C608.283 355.692 607.135 357.588 605.907 359.297C596.429 358.95 594.133 355.105 594.133 355.105L609.324 353.69Z" fill="#5A7DE0"/>
<path d="M594.588 350.086C594.588 350.086 605.427 347.603 606.762 345.281C608.097 342.958 609.992 327.446 609.992 327.446L614.504 333.24L613.597 346.856C613.597 346.856 608.444 351.955 608.124 351.768C607.777 351.581 594.588 350.086 594.588 350.086Z" fill="#5A7DE0"/>
<path d="M614.264 316.58C614.264 316.58 616.827 317.862 617.815 319.677C619.684 323.121 621.713 349.766 616.347 354.171C611.007 358.576 595.469 357.695 593.654 354.571C593.654 354.571 593.52 351.661 594.588 350.086C594.588 350.086 608.551 348.244 609.192 347.363C609.806 346.482 608.738 327.606 609.406 325.898C610.046 324.162 614.264 316.58 614.264 316.58Z" fill="#739AF0"/>
<path d="M616.586 353.877C616.586 353.877 612.555 357.668 595.682 358.202C582.493 358.629 568.583 363.942 562.096 373.099C560.28 375.636 559.026 379.854 558.545 382.684C557.664 387.89 590.582 395.953 591.116 395.205C591.65 394.458 612.795 376.276 612.795 376.276L616.586 353.877Z" fill="#607CF4"/>
<path d="M463.955 249.648C463.955 249.648 480.374 266.681 481.149 273.062C481.923 279.443 473.273 289.481 473.273 289.481L463.955 249.648Z" fill="#C6DCF7"/>
<path d="M456.534 426.041C456.534 426.041 455.947 435.065 454.211 435.198C453.971 435.225 445.347 435.198 445.347 435.198L434.321 435.118C434.321 435.118 434.401 432.475 437.632 431.915C440.862 431.354 446.255 429.111 448.204 424.866C450.26 420.354 456.534 426.041 456.534 426.041Z" fill="#0E2644"/>
<path d="M481.068 426.094C481.068 426.094 480.48 435.118 478.745 435.251C478.505 435.278 469.881 435.251 469.881 435.251L458.855 435.171C458.855 435.171 458.935 432.528 462.166 431.967C465.396 431.407 470.789 429.164 472.738 424.919C474.794 420.407 481.068 426.094 481.068 426.094Z" fill="#0E2644"/>
<path d="M444.545 328.968C444.545 328.968 447.375 347.389 458.055 380.121C468.734 412.852 470.175 427.002 470.175 427.002L481.709 426.709C481.709 426.709 481.896 390.96 476.957 374.514C472.044 358.068 476.022 315.218 476.022 315.218L444.545 328.968Z" fill="#163560"/>
<path d="M438.966 316.153C438.966 316.153 438.485 343.919 443.237 378.012C447.963 412.105 446.308 426.575 446.308 426.575L457.814 426.975C457.814 426.975 464.756 392.882 462.833 375.822C460.911 358.763 472.365 317.301 472.365 317.301L438.966 316.153Z" fill="#1C468A"/>
<path d="M461.366 251.25L455.225 255.255L446.361 253.573C446.495 252.852 447.082 249.889 447.616 247.219C447.643 247.059 447.669 246.898 447.723 246.738C448.177 244.442 448.577 242.493 448.577 242.493L456.854 238.862L459.951 237.501C459.951 237.554 459.71 240.037 459.684 240.411C459.096 246.845 461.366 251.25 461.366 251.25Z" fill="#FFB27D"/>
<path d="M448.657 249.195C448.818 249.115 459.336 246.044 460.458 246.418C461.606 246.792 462.273 249.008 462.273 249.008L445.107 252.852C445.107 252.852 446.468 250.102 448.657 249.195Z" fill="#C6DCF7"/>
<path d="M476.77 319.677C474.982 327.793 445.374 328.674 437.738 321.305C436.884 320.451 436.83 316.553 437.177 311.294C437.845 301.015 439.927 285.53 440.034 277.628C440.088 273.81 440.621 269.912 441.316 266.361C442.811 258.806 445.107 252.879 445.107 252.879C445.107 252.879 459.577 248.233 462.273 249.034C475.302 252.852 478.559 311.561 476.77 319.677Z" fill="#EBF3FA"/>
<path d="M437.176 311.267C437.844 300.988 439.926 285.504 440.033 277.601C440.086 273.783 440.62 269.885 441.314 266.335L452.287 264.28C452.287 264.28 458.454 299.573 437.176 311.267Z" fill="#C6DCF7"/>
<path d="M441.929 296.957C441.929 296.957 442.517 298.372 441.262 299.333C440.007 300.294 439.206 301.816 439.473 302.937C439.767 304.059 442.49 305.901 443.424 305.607C444.359 305.313 446.308 303.845 446.094 303.231C445.881 302.617 447.402 298.025 445.106 296.236C442.81 294.447 441.929 296.957 441.929 296.957Z" fill="#FFB27D"/>
<path d="M451.754 250.77C451.754 250.77 443.264 252.345 436.483 262.277C429.702 272.208 425.243 279.63 426.471 283.208C427.699 286.785 439.046 299.28 440.995 299.28C442.944 299.28 446.121 297.865 446.308 294.661C446.308 294.661 438.352 282.674 439.927 280.885C440.594 280.111 450.312 272.262 451.701 275.812C453.97 281.739 451.754 250.77 451.754 250.77Z" fill="#C6DCF7"/>
<path d="M459.07 240.518C457.254 243.588 450.473 246.231 447.643 247.219C447.67 247.059 447.696 246.898 447.75 246.738C448.203 244.442 448.604 242.493 448.604 242.493L456.88 238.862C458.696 238.836 459.817 239.263 459.07 240.518Z" fill="#FCA56B"/>
<path d="M445.48 241.986C445.48 241.986 458.802 246.178 461.285 237.848C463.768 229.518 467.159 224.446 458.749 221.429C450.339 218.412 447.749 221.082 446.228 223.671C444.732 226.234 442.063 240.678 445.48 241.986Z" fill="#FFB27D"/>
<path d="M446.762 222.844C446.762 222.844 447.59 232.562 449.592 232.135C451.595 231.707 453.41 231.414 453.116 234.324C452.823 237.234 450.02 240.625 456.213 241.158C462.407 241.692 471.324 225.754 469.642 222.737C464.757 214.007 439.688 212.218 446.762 222.844Z" fill="#163560"/>
<path d="M555.103 198.563C555.355 198.314 555.356 197.908 555.107 197.657C554.858 197.405 554.453 197.403 554.201 197.652C553.95 197.901 553.948 198.307 554.197 198.559C554.446 198.81 554.852 198.812 555.103 198.563Z" fill="#D5E5FB"/>
<path d="M557.182 200.627C557.433 200.378 557.435 199.972 557.186 199.721C556.937 199.469 556.531 199.467 556.28 199.716C556.029 199.965 556.027 200.371 556.276 200.623C556.525 200.874 556.931 200.876 557.182 200.627Z" fill="#D5E5FB"/>
<path d="M559.265 202.728C559.516 202.479 559.518 202.073 559.269 201.822C559.02 201.57 558.614 201.568 558.363 201.818C558.111 202.067 558.11 202.472 558.359 202.724C558.608 202.975 559.013 202.977 559.265 202.728Z" fill="#D5E5FB"/>
<path d="M561.35 204.837C561.602 204.588 561.603 204.183 561.354 203.931C561.105 203.68 560.7 203.678 560.448 203.927C560.197 204.176 560.195 204.582 560.444 204.833C560.693 205.085 561.099 205.086 561.35 204.837Z" fill="#D5E5FB"/>
<path d="M563.395 206.911C563.646 206.662 563.648 206.256 563.399 206.005C563.15 205.753 562.744 205.751 562.493 206C562.242 206.249 562.24 206.655 562.489 206.906C562.738 207.158 563.144 207.16 563.395 206.911Z" fill="#D5E5FB"/>
<path d="M565.477 209.011C565.729 208.762 565.731 208.357 565.482 208.105C565.233 207.854 564.827 207.852 564.575 208.101C564.324 208.35 564.322 208.756 564.571 209.007C564.82 209.259 565.226 209.26 565.477 209.011Z" fill="#D5E5FB"/>
<path d="M567.486 211.038C567.738 210.788 567.739 210.383 567.49 210.131C567.241 209.88 566.836 209.878 566.584 210.127C566.333 210.376 566.331 210.782 566.58 211.033C566.829 211.285 567.235 211.287 567.486 211.038Z" fill="#D5E5FB"/>
<path d="M569.55 213.129C569.802 212.88 569.803 212.475 569.554 212.223C569.305 211.972 568.9 211.97 568.648 212.219C568.397 212.468 568.395 212.874 568.644 213.125C568.893 213.377 569.299 213.379 569.55 213.129Z" fill="#D5E5FB"/>
<path d="M571.636 215.239C571.887 214.99 571.889 214.585 571.64 214.333C571.391 214.082 570.985 214.08 570.734 214.329C570.482 214.578 570.48 214.984 570.729 215.235C570.978 215.487 571.384 215.488 571.636 215.239Z" fill="#D5E5FB"/>
<path d="M573.699 217.321C573.951 217.072 573.953 216.666 573.704 216.415C573.454 216.163 573.049 216.161 572.797 216.41C572.546 216.659 572.544 217.065 572.793 217.317C573.042 217.568 573.448 217.57 573.699 217.321Z" fill="#D5E5FB"/>
<path d="M575.759 219.404C576.01 219.155 576.012 218.749 575.763 218.498C575.514 218.246 575.108 218.244 574.857 218.493C574.606 218.742 574.604 219.148 574.853 219.399C575.102 219.651 575.507 219.653 575.759 219.404Z" fill="#D5E5FB"/>
<path d="M577.849 221.523C578.1 221.274 578.102 220.868 577.853 220.617C577.604 220.366 577.198 220.364 576.947 220.613C576.695 220.862 576.693 221.267 576.943 221.519C577.192 221.77 577.597 221.772 577.849 221.523Z" fill="#D5E5FB"/>
<path d="M529.667 204.805C529.746 204.46 529.531 204.116 529.186 204.037C528.841 203.957 528.497 204.172 528.418 204.517C528.339 204.862 528.554 205.206 528.899 205.285C529.244 205.365 529.588 205.15 529.667 204.805Z" fill="#D5E5FB"/>
<path d="M528.988 207.661C529.068 207.317 528.852 206.973 528.508 206.893C528.163 206.814 527.819 207.029 527.739 207.374C527.66 207.719 527.875 208.063 528.22 208.142C528.565 208.221 528.909 208.006 528.988 207.661Z" fill="#D5E5FB"/>
<path d="M528.326 210.573C528.405 210.228 528.19 209.884 527.845 209.805C527.5 209.725 527.156 209.941 527.077 210.285C526.997 210.63 527.213 210.974 527.558 211.054C527.902 211.133 528.246 210.918 528.326 210.573Z" fill="#D5E5FB"/>
<path d="M527.673 213.444C527.753 213.099 527.537 212.755 527.193 212.676C526.848 212.596 526.504 212.811 526.424 213.156C526.345 213.501 526.56 213.845 526.905 213.924C527.25 214.004 527.594 213.789 527.673 213.444Z" fill="#D5E5FB"/>
<path d="M527.002 216.274C527.082 215.929 526.866 215.585 526.521 215.506C526.177 215.427 525.833 215.642 525.753 215.987C525.674 216.332 525.889 216.675 526.234 216.755C526.579 216.834 526.923 216.619 527.002 216.274Z" fill="#D5E5FB"/>
<path d="M526.323 219.156C526.402 218.811 526.187 218.467 525.842 218.388C525.497 218.309 525.153 218.524 525.074 218.869C524.995 219.213 525.21 219.557 525.555 219.637C525.899 219.716 526.243 219.501 526.323 219.156Z" fill="#D5E5FB"/>
<path d="M525.687 221.931C525.767 221.587 525.551 221.243 525.207 221.163C524.862 221.084 524.518 221.299 524.438 221.644C524.359 221.989 524.574 222.333 524.919 222.412C525.264 222.492 525.608 222.276 525.687 221.931Z" fill="#D5E5FB"/>
<path d="M525.025 224.822C525.104 224.477 524.889 224.133 524.544 224.054C524.199 223.974 523.855 224.19 523.776 224.535C523.696 224.879 523.912 225.223 524.256 225.303C524.601 225.382 524.945 225.167 525.025 224.822Z" fill="#D5E5FB"/>
<path d="M524.377 227.728C524.457 227.384 524.241 227.04 523.897 226.96C523.552 226.881 523.208 227.096 523.129 227.441C523.049 227.786 523.264 228.13 523.609 228.209C523.954 228.288 524.298 228.073 524.377 227.728Z" fill="#D5E5FB"/>
<path d="M523.697 230.572C523.776 230.228 523.561 229.884 523.216 229.804C522.872 229.725 522.528 229.94 522.448 230.285C522.369 230.63 522.584 230.974 522.929 231.053C523.274 231.132 523.618 230.917 523.697 230.572Z" fill="#D5E5FB"/>
<path d="M523.059 233.452C523.139 233.107 522.923 232.764 522.579 232.684C522.234 232.605 521.89 232.82 521.811 233.165C521.731 233.51 521.947 233.854 522.291 233.933C522.636 234.012 522.98 233.797 523.059 233.452Z" fill="#D5E5FB"/>
<path d="M522.369 236.324C522.448 235.979 522.233 235.636 521.888 235.556C521.543 235.477 521.2 235.692 521.12 236.037C521.041 236.382 521.256 236.726 521.601 236.805C521.946 236.884 522.29 236.669 522.369 236.324Z" fill="#D5E5FB"/>
<path d="M539.375 197.454C546.984 197.454 553.152 191.287 553.152 183.678C553.152 176.07 546.984 169.902 539.375 169.902C531.767 169.902 525.599 176.07 525.599 183.678C525.599 191.287 531.767 197.454 539.375 197.454Z" fill="#C6DCF7"/>
<path d="M539.375 182.584C541.823 182.584 543.807 180.599 543.807 178.152C543.807 175.704 541.823 173.72 539.375 173.72C536.928 173.72 534.944 175.704 534.944 178.152C534.944 180.599 536.928 182.584 539.375 182.584Z" fill="#EBF3FA"/>
<path d="M539.375 182.584C543.647 182.584 547.117 186.054 547.117 190.326H531.633C531.633 186.054 535.077 182.584 539.375 182.584Z" fill="#EBF3FA"/>
<path d="M572.963 226.208L572.455 224.953C571.895 223.592 570.586 222.711 569.118 222.711H559.694V228.691V254.214H598.673V228.691H576.62C574.992 228.691 573.55 227.703 572.963 226.208Z" fill="#C6DCF7"/>
<path d="M585.003 237.101H583.695C583.721 236.888 583.748 236.674 583.748 236.46V236.007C583.748 233.951 582.066 232.296 580.037 232.296H577.741C575.685 232.296 574.03 233.978 574.03 236.007V236.46C574.03 236.674 574.057 236.888 574.083 237.101H572.642C571.894 237.101 571.28 237.715 571.28 238.463V244.443C571.28 247.834 574.03 250.557 577.394 250.557H580.998C584.175 250.557 586.765 247.994 586.765 244.79V238.837C586.765 237.875 585.991 237.101 585.003 237.101ZM579.45 243.108V245.885C579.45 246.125 579.263 246.312 579.023 246.312C578.782 246.312 578.595 246.125 578.595 245.885V243.108C577.688 242.921 577.02 242.094 577.02 241.133C577.02 240.011 577.928 239.104 579.049 239.104C580.171 239.104 581.078 240.011 581.078 241.133C581.052 242.094 580.357 242.895 579.45 243.108ZM582.28 236.434C582.28 236.647 582.253 236.888 582.173 237.074H575.605C575.552 236.861 575.498 236.647 575.498 236.434V235.98C575.498 234.752 576.513 233.737 577.741 233.737H580.037C581.265 233.737 582.28 234.752 582.28 235.98V236.434Z" fill="#EBF3FA"/>
<path d="M507.045 255.869C507.045 262.917 518.952 275.759 518.952 275.759C518.952 275.759 530.859 262.917 530.859 255.869C530.859 248.821 525.519 243.134 518.952 243.134C512.384 243.134 507.045 248.848 507.045 255.869ZM512.037 254.588C512.037 250.77 515.134 247.673 518.952 247.673C522.77 247.673 525.866 250.77 525.866 254.588C525.866 258.406 522.77 261.502 518.952 261.502C515.134 261.502 512.037 258.406 512.037 254.588Z" fill="#C6DCF7"/>
<path d="M696.172 436.987H0.827634C0.373771 436.987 0 436.614 0 436.16V435.786C0 435.332 0.373771 434.958 0.827634 434.958H696.172C696.626 434.958 697 435.332 697 435.786V436.16C697 436.614 696.626 436.987 696.172 436.987Z" fill="#233862"/>
<path d="M231.683 250.876C231.39 249.648 231.923 248.714 233.045 248.714C234.166 248.714 235.154 249.648 235.448 250.876C235.741 252.105 235.207 253.039 234.086 253.039C232.965 253.039 231.977 252.105 231.683 250.876ZM234.486 250.876C234.3 250.129 233.792 249.542 233.232 249.542C232.671 249.542 232.457 250.102 232.644 250.876C232.831 251.651 233.338 252.211 233.899 252.211C234.46 252.211 234.673 251.624 234.486 250.876Z" fill="white"/>
<path d="M215.398 219.374L214.704 219.561L214.33 218.813L215.451 218.44H216.092L217.106 222.658H216.199L215.398 219.374Z" fill="#2F539B"/>
<path d="M218.709 220.548C218.415 219.32 218.949 218.386 220.07 218.386C221.192 218.386 222.18 219.32 222.473 220.548C222.767 221.776 222.233 222.711 221.112 222.711C219.99 222.711 219.003 221.776 218.709 220.548ZM221.512 220.548C221.325 219.801 220.818 219.213 220.257 219.213C219.697 219.213 219.483 219.774 219.67 220.548C219.857 221.322 220.364 221.883 220.925 221.883C221.485 221.883 221.699 221.322 221.512 220.548Z" fill="#2F539B"/>
<path d="M238.571 278.883C238.278 277.655 238.812 276.72 239.933 276.72C241.054 276.72 242.042 277.655 242.336 278.883C242.63 280.111 242.096 281.045 240.974 281.045C239.853 281.045 238.865 280.111 238.571 278.883ZM241.375 278.883C241.188 278.135 240.681 277.548 240.12 277.548C239.559 277.548 239.346 278.109 239.533 278.883C239.719 279.657 240.227 280.218 240.787 280.218C241.348 280.218 241.562 279.657 241.375 278.883Z" fill="#2F539B"/>
<path d="M220.177 239.103L219.483 239.29L219.109 238.542L220.23 238.169H220.871L221.885 242.387H220.978L220.177 239.103Z" fill="#2F539B"/>
<path d="M223.487 240.278C223.194 239.05 223.728 238.115 224.849 238.115C225.97 238.115 226.958 239.05 227.252 240.278C227.545 241.506 227.011 242.44 225.89 242.44C224.769 242.44 223.781 241.506 223.487 240.278ZM226.291 240.278C226.104 239.53 225.596 238.943 225.036 238.943C224.475 238.943 224.261 239.504 224.448 240.278C224.635 241.052 225.143 241.613 225.703 241.613C226.264 241.613 226.477 241.052 226.291 240.278Z" fill="#2F539B"/>
<path d="M222.926 229.171L222.232 229.358L221.859 228.611L222.98 228.237H223.621L224.635 232.455H223.727L222.926 229.171Z" fill="white"/>
<path d="M226.237 230.346C225.943 229.118 226.477 228.184 227.598 228.184C228.72 228.184 229.708 229.118 230.001 230.346C230.295 231.574 229.761 232.509 228.64 232.509C227.518 232.509 226.531 231.574 226.237 230.346ZM229.04 230.346C228.853 229.599 228.346 229.011 227.785 229.011C227.225 229.011 227.011 229.572 227.198 230.346C227.385 231.12 227.892 231.681 228.453 231.681C229.013 231.681 229.227 231.12 229.04 230.346Z" fill="white"/>
<path d="M222.74 249.702L222.045 249.889L221.672 249.141L222.793 248.767H223.434L224.448 252.986H223.54L222.74 249.702Z" fill="#2F539B"/>
<path d="M226.05 250.876C225.756 249.648 226.29 248.714 227.412 248.714C228.533 248.714 229.521 249.648 229.814 250.876C230.108 252.105 229.574 253.039 228.453 253.039C227.332 253.039 226.344 252.105 226.05 250.876ZM228.853 250.876C228.666 250.129 228.159 249.542 227.598 249.542C227.038 249.542 226.824 250.102 227.011 250.876C227.198 251.651 227.705 252.211 228.266 252.211C228.827 252.211 229.04 251.651 228.853 250.876Z" fill="#2F539B"/>
<path d="M234.701 220.548C234.407 219.32 234.941 218.386 236.062 218.386C237.183 218.386 238.171 219.32 238.465 220.548C238.759 221.776 238.225 222.711 237.103 222.711C235.955 222.711 234.994 221.776 234.701 220.548ZM237.504 220.548C237.317 219.801 236.81 219.213 236.249 219.213C235.688 219.213 235.475 219.774 235.662 220.548C235.849 221.322 236.356 221.883 236.916 221.883C237.45 221.883 237.691 221.322 237.504 220.548Z" fill="white"/>
<path d="M225.757 219.373L225.063 219.56L224.689 218.813L225.81 218.439H226.451L227.465 222.657H226.558L225.757 219.373Z" fill="#2F539B"/>
<path d="M229.067 220.548C228.774 219.32 229.308 218.386 230.429 218.386C231.55 218.386 232.538 219.32 232.832 220.548C233.125 221.776 232.591 222.711 231.47 222.711C230.322 222.711 229.361 221.776 229.067 220.548ZM231.871 220.548C231.684 219.801 231.176 219.213 230.616 219.213C230.055 219.213 229.842 219.774 230.028 220.548C230.215 221.322 230.723 221.883 231.283 221.883C231.844 221.883 232.058 221.322 231.871 220.548Z" fill="#2F539B"/>
<path d="M236.596 271.354C236.302 270.126 236.836 269.192 237.957 269.192C239.079 269.192 240.067 270.126 240.36 271.354C240.654 272.582 240.12 273.517 238.999 273.517C237.877 273.517 236.89 272.582 236.596 271.354ZM239.399 271.354C239.212 270.607 238.705 270.019 238.144 270.019C237.584 270.019 237.37 270.58 237.557 271.354C237.744 272.128 238.251 272.689 238.812 272.689C239.372 272.689 239.586 272.102 239.399 271.354Z" fill="white"/>
<path d="M225.089 259.58L224.395 259.767L224.021 259.02L225.143 258.646H225.784L226.798 262.864H225.89L225.089 259.58Z" fill="#2F539B"/>
<path d="M228.399 260.755C228.106 259.527 228.64 258.593 229.761 258.593C230.882 258.593 231.87 259.527 232.164 260.755C232.457 261.983 231.924 262.918 230.802 262.918C229.681 262.918 228.693 261.983 228.399 260.755ZM231.203 260.755C231.016 260.008 230.508 259.42 229.948 259.42C229.387 259.42 229.174 259.981 229.36 260.755C229.547 261.529 230.055 262.09 230.615 262.09C231.176 262.09 231.39 261.529 231.203 260.755Z" fill="#2F539B"/>
<path d="M234.033 260.755C233.739 259.527 234.273 258.593 235.395 258.593C236.516 258.593 237.504 259.527 237.798 260.755C238.091 261.983 237.557 262.918 236.436 262.918C235.315 262.918 234.327 261.983 234.033 260.755ZM236.836 260.728C236.65 259.981 236.142 259.393 235.582 259.393C235.021 259.393 234.807 259.954 234.994 260.728C235.181 261.503 235.688 262.063 236.249 262.063C236.81 262.09 237.023 261.503 236.836 260.728Z" fill="#2F539B"/>
<path d="M240.093 259.554L239.398 259.74L239.025 258.993L240.146 258.619H240.787L241.801 262.837H240.894L240.093 259.554Z" fill="#2F539B"/>
<path d="M227.652 270.18L226.958 270.367L226.584 269.619L227.705 269.245H228.346L229.36 273.464H228.453L227.652 270.18Z" fill="#2F539B"/>
<path d="M230.963 271.354C230.669 270.126 231.203 269.192 232.324 269.192C233.446 269.192 234.433 270.126 234.727 271.354C235.021 272.582 234.487 273.517 233.366 273.517C232.244 273.517 231.256 272.582 230.963 271.354ZM233.766 271.354C233.579 270.607 233.072 270.019 232.511 270.019C231.951 270.019 231.737 270.58 231.924 271.354C232.111 272.128 232.618 272.689 233.179 272.689C233.739 272.689 233.953 272.128 233.766 271.354Z" fill="#2F539B"/>
<path d="M241.562 294.848C241.268 293.62 241.802 292.686 242.923 292.686C244.045 292.686 245.032 293.62 245.326 294.848C245.62 296.076 245.086 297.011 243.965 297.011C242.843 297.011 241.855 296.076 241.562 294.848ZM244.392 294.848C244.205 294.101 243.698 293.513 243.137 293.513C242.576 293.513 242.363 294.074 242.55 294.848C242.736 295.622 243.244 296.183 243.804 296.183C244.338 296.183 244.579 295.622 244.392 294.848Z" fill="#2F539B"/>
<path d="M247.622 293.646L246.927 293.833L246.554 293.086L247.675 292.712H248.316L249.33 296.93H248.423L247.622 293.646Z" fill="#2F539B"/>
<path d="M232.645 293.673L231.95 293.86L231.577 293.113L232.698 292.739H233.339L234.353 296.957H233.446L232.645 293.673Z" fill="#2F539B"/>
<path d="M235.928 294.875C235.634 293.646 236.168 292.712 237.29 292.712C238.411 292.712 239.399 293.646 239.692 294.875C239.986 296.103 239.452 297.037 238.331 297.037C237.21 297.037 236.248 296.103 235.928 294.875ZM238.758 294.848C238.571 294.1 238.064 293.513 237.503 293.513C236.943 293.513 236.729 294.074 236.916 294.848C237.103 295.622 237.61 296.183 238.171 296.183C238.705 296.183 238.945 295.622 238.758 294.848Z" fill="#2F539B"/>
<path d="M250.932 294.848C250.639 293.62 251.172 292.686 252.294 292.686C253.415 292.686 254.403 293.62 254.697 294.848C254.99 296.076 254.456 297.011 253.335 297.011C252.214 297.011 251.226 296.076 250.932 294.848ZM253.735 294.821C253.549 294.074 253.041 293.487 252.481 293.487C251.92 293.487 251.706 294.047 251.893 294.821C252.08 295.596 252.587 296.156 253.148 296.156C253.709 296.156 253.922 295.596 253.735 294.821Z" fill="white"/>
<path d="M256.565 294.821C256.272 293.593 256.806 292.659 257.927 292.659C259.048 292.659 260.036 293.593 260.33 294.821C260.623 296.049 260.09 296.984 258.968 296.984C257.847 296.984 256.859 296.049 256.565 294.821ZM259.369 294.821C259.182 294.074 258.675 293.486 258.114 293.486C257.553 293.486 257.34 294.047 257.527 294.821C257.713 295.596 258.221 296.156 258.781 296.156C259.342 296.156 259.556 295.596 259.369 294.821Z" fill="white"/>
<path d="M234.62 302.404C234.327 301.175 234.861 300.241 235.982 300.241C237.103 300.241 238.091 301.175 238.385 302.404C238.678 303.632 238.144 304.566 237.023 304.566C235.902 304.566 234.914 303.632 234.62 302.404ZM237.424 302.404C237.237 301.656 236.729 301.069 236.169 301.069C235.608 301.069 235.395 301.629 235.581 302.404C235.768 303.178 236.276 303.738 236.836 303.738C237.397 303.738 237.61 303.178 237.424 302.404Z" fill="#2F539B"/>
<path d="M240.681 301.202L239.987 301.389L239.613 300.642L240.735 300.268H241.375L242.39 304.486H241.482L240.681 301.202Z" fill="#2F539B"/>
<path d="M243.991 302.404C243.698 301.175 244.232 300.241 245.353 300.241C246.474 300.241 247.462 301.175 247.756 302.404C248.049 303.632 247.515 304.566 246.394 304.566C245.246 304.566 244.285 303.632 243.991 302.404ZM246.795 302.404C246.608 301.656 246.1 301.069 245.54 301.069C244.979 301.069 244.766 301.629 244.952 302.404C245.139 303.178 245.647 303.738 246.207 303.738C246.768 303.738 246.981 303.178 246.795 302.404Z" fill="#2F539B"/>
<path d="M249.624 302.377C249.331 301.149 249.865 300.214 250.986 300.214C252.107 300.214 253.095 301.149 253.389 302.377C253.683 303.605 253.149 304.539 252.027 304.539C250.906 304.539 249.918 303.605 249.624 302.377ZM252.428 302.377C252.241 301.629 251.734 301.042 251.173 301.042C250.612 301.042 250.399 301.603 250.586 302.377C250.772 303.151 251.28 303.712 251.84 303.712C252.401 303.712 252.615 303.151 252.428 302.377Z" fill="#2F539B"/>
<path d="M411.92 294.848C411.627 293.62 412.161 292.686 413.282 292.686C414.403 292.686 415.391 293.62 415.685 294.848C415.979 296.076 415.445 297.011 414.323 297.011C413.202 297.011 412.241 296.076 411.92 294.848ZM414.75 294.848C414.564 294.101 414.056 293.513 413.496 293.513C412.935 293.513 412.721 294.074 412.908 294.848C413.095 295.622 413.602 296.183 414.163 296.183C414.697 296.183 414.937 295.622 414.75 294.848Z" fill="#2F539B"/>
<path d="M418.007 293.646L417.313 293.833L416.94 293.086L418.061 292.712H418.702L419.716 296.93H418.808L418.007 293.646Z" fill="#2F539B"/>
<path d="M403.004 293.673L402.31 293.86L401.936 293.113L403.057 292.739H403.698L404.713 296.957H403.805L403.004 293.673Z" fill="#2F539B"/>
<path d="M406.314 294.875C406.02 293.646 406.554 292.712 407.676 292.712C408.797 292.712 409.785 293.646 410.078 294.875C410.372 296.103 409.838 297.037 408.717 297.037C407.569 297.037 406.608 296.103 406.314 294.875ZM409.117 294.848C408.93 294.1 408.423 293.513 407.862 293.513C407.302 293.513 407.088 294.074 407.275 294.848C407.462 295.622 407.969 296.183 408.53 296.183C409.09 296.183 409.304 295.622 409.117 294.848Z" fill="#2F539B"/>
<path d="M421.292 294.848C420.998 293.62 421.532 292.686 422.654 292.686C423.775 292.686 424.763 293.62 425.056 294.848C425.35 296.076 424.816 297.011 423.695 297.011C422.573 297.011 421.612 296.076 421.292 294.848ZM424.122 294.821C423.935 294.074 423.428 293.487 422.867 293.487C422.307 293.487 422.093 294.047 422.28 294.821C422.467 295.596 422.974 296.156 423.535 296.156C424.069 296.156 424.309 295.596 424.122 294.821Z" fill="white"/>
<path d="M426.925 294.821C426.631 293.593 427.165 292.659 428.287 292.659C429.408 292.659 430.396 293.593 430.69 294.821C430.983 296.049 430.449 296.984 429.328 296.984C428.207 296.984 427.219 296.049 426.925 294.821ZM429.755 294.821C429.568 294.074 429.061 293.486 428.5 293.486C427.94 293.486 427.726 294.047 427.913 294.821C428.1 295.596 428.607 296.156 429.168 296.156C429.702 296.156 429.942 295.596 429.755 294.821Z" fill="white"/>
<path d="M389.415 302.404C389.121 301.175 389.655 300.241 390.776 300.241C391.898 300.241 392.886 301.175 393.179 302.404C393.473 303.632 392.939 304.566 391.818 304.566C390.696 304.566 389.709 303.632 389.415 302.404ZM392.218 302.404C392.031 301.656 391.524 301.069 390.963 301.069C390.403 301.069 390.189 301.629 390.376 302.404C390.563 303.178 391.07 303.738 391.631 303.738C392.191 303.738 392.405 303.178 392.218 302.404Z" fill="#2F539B"/>
<path d="M395.474 301.202L394.78 301.389L394.406 300.642L395.528 300.268H396.168L397.183 304.486H396.275L395.474 301.202Z" fill="#2F539B"/>
<path d="M398.785 302.404C398.491 301.175 399.025 300.241 400.146 300.241C401.268 300.241 402.256 301.175 402.549 302.404C402.843 303.632 402.309 304.566 401.188 304.566C400.04 304.566 399.078 303.632 398.785 302.404ZM401.588 302.404C401.401 301.656 400.894 301.069 400.333 301.069C399.773 301.069 399.559 301.629 399.746 302.404C399.933 303.178 400.44 303.738 401.001 303.738C401.561 303.738 401.775 303.178 401.588 302.404Z" fill="#2F539B"/>
<path d="M404.417 302.377C404.124 301.149 404.658 300.214 405.779 300.214C406.9 300.214 407.888 301.149 408.182 302.377C408.476 303.605 407.942 304.539 406.82 304.539C405.699 304.539 404.711 303.605 404.417 302.377ZM407.221 302.377C407.034 301.629 406.527 301.042 405.966 301.042C405.405 301.042 405.192 301.603 405.379 302.377C405.565 303.151 406.073 303.712 406.633 303.712C407.194 303.712 407.408 303.151 407.221 302.377Z" fill="#2F539B"/>
<path d="M248.717 322.213C248.423 320.985 248.957 320.05 250.078 320.05C251.199 320.05 252.187 320.985 252.481 322.213C252.775 323.441 252.241 324.375 251.119 324.375C249.998 324.375 249.01 323.441 248.717 322.213ZM251.52 322.213C251.333 321.465 250.826 320.878 250.265 320.878C249.704 320.878 249.491 321.439 249.678 322.213C249.865 322.987 250.372 323.548 250.932 323.548C251.493 323.548 251.707 322.961 251.52 322.213Z" fill="white"/>
<path d="M254.777 321.012L254.083 321.199L253.709 320.451L254.83 320.077H255.471L256.486 324.296H255.578L254.777 321.012Z" fill="white"/>
<path d="M237.21 310.439L236.516 310.626L236.142 309.879L237.263 309.505H237.904L238.919 313.723H238.011L237.21 310.439Z" fill="#2F539B"/>
<path d="M240.52 311.614C240.226 310.386 240.76 309.452 241.882 309.452C243.003 309.452 243.991 310.386 244.285 311.614C244.578 312.842 244.044 313.777 242.923 313.777C241.802 313.777 240.814 312.842 240.52 311.614ZM243.323 311.614C243.137 310.867 242.629 310.279 242.069 310.279C241.508 310.279 241.294 310.84 241.481 311.614C241.668 312.389 242.175 312.949 242.736 312.949C243.297 312.949 243.51 312.389 243.323 311.614Z" fill="#2F539B"/>
<path d="M246.153 311.614C245.86 310.386 246.394 309.452 247.515 309.452C248.636 309.452 249.624 310.386 249.918 311.614C250.211 312.842 249.677 313.777 248.556 313.777C247.435 313.777 246.447 312.842 246.153 311.614ZM248.957 311.588C248.77 310.84 248.262 310.253 247.702 310.253C247.141 310.253 246.928 310.813 247.114 311.588C247.301 312.362 247.809 312.922 248.369 312.922C248.93 312.922 249.143 312.362 248.957 311.588Z" fill="#2F539B"/>
<path d="M252.214 310.413L251.52 310.6L251.146 309.852L252.267 309.478H252.908L253.922 313.696H253.015L252.214 310.413Z" fill="#2F539B"/>
<path d="M402.069 310.439L401.375 310.626L401.001 309.879L402.122 309.505H402.763L403.778 313.723H402.87L402.069 310.439Z" fill="#2F539B"/>
<path d="M405.379 311.614C405.086 310.386 405.62 309.452 406.741 309.452C407.862 309.452 408.85 310.386 409.144 311.614C409.437 312.842 408.904 313.777 407.782 313.777C406.661 313.777 405.673 312.842 405.379 311.614ZM408.183 311.614C407.996 310.867 407.489 310.279 406.928 310.279C406.367 310.279 406.154 310.84 406.341 311.614C406.527 312.389 407.035 312.949 407.595 312.949C408.156 312.949 408.37 312.389 408.183 311.614Z" fill="#2F539B"/>
<path d="M411.013 311.614C410.719 310.386 411.253 309.452 412.374 309.452C413.496 309.452 414.483 310.386 414.777 311.614C415.071 312.842 414.537 313.777 413.415 313.777C412.267 313.777 411.306 312.842 411.013 311.614ZM413.816 311.588C413.629 310.84 413.122 310.253 412.561 310.253C412 310.253 411.787 310.813 411.974 311.588C412.161 312.362 412.668 312.922 413.229 312.922C413.789 312.922 414.003 312.362 413.816 311.588Z" fill="#2F539B"/>
<path d="M417.073 310.413L416.379 310.6L416.006 309.852L417.127 309.478H417.768L418.782 313.696H417.874L417.073 310.413Z" fill="#2F539B"/>
<path d="M239.8 321.039L239.106 321.225L238.732 320.478L239.853 320.104H240.494L241.509 324.322H240.601L239.8 321.039Z" fill="#2F539B"/>
<path d="M243.083 322.213C242.79 320.985 243.324 320.05 244.445 320.05C245.566 320.05 246.554 320.985 246.848 322.213C247.141 323.441 246.607 324.375 245.486 324.375C244.365 324.375 243.377 323.441 243.083 322.213ZM245.913 322.213C245.726 321.465 245.219 320.878 244.659 320.878C244.098 320.878 243.884 321.439 244.071 322.213C244.258 322.987 244.765 323.548 245.326 323.548C245.887 323.548 246.1 322.987 245.913 322.213Z" fill="#2F539B"/>
<path d="M258.088 322.187C257.794 320.959 258.328 320.024 259.45 320.024C260.571 320.024 261.559 320.959 261.852 322.187C262.146 323.415 261.612 324.349 260.491 324.349C259.369 324.349 258.382 323.415 258.088 322.187ZM260.891 322.187C260.704 321.439 260.197 320.852 259.636 320.852C259.076 320.852 258.862 321.413 259.049 322.187C259.236 322.961 259.743 323.522 260.304 323.522C260.865 323.522 261.078 322.961 260.891 322.187Z" fill="#2F539B"/>
<path d="M263.721 322.187C263.427 320.959 263.961 320.024 265.083 320.024C266.204 320.024 267.192 320.959 267.486 322.187C267.779 323.415 267.245 324.349 266.124 324.349C265.003 324.349 264.015 323.415 263.721 322.187ZM266.524 322.187C266.338 321.439 265.83 320.852 265.27 320.852C264.709 320.852 264.495 321.413 264.682 322.187C264.869 322.961 265.376 323.522 265.937 323.522C266.498 323.522 266.711 322.961 266.524 322.187Z" fill="#2F539B"/>
<path d="M250.906 329.689C250.612 328.46 251.146 327.526 252.267 327.526C253.389 327.526 254.376 328.46 254.67 329.689C254.964 330.917 254.43 331.851 253.308 331.851C252.16 331.851 251.199 330.917 250.906 329.689ZM253.709 329.689C253.522 328.941 253.015 328.354 252.454 328.354C251.893 328.354 251.68 328.914 251.867 329.689C252.054 330.463 252.561 331.023 253.122 331.023C253.682 331.023 253.896 330.463 253.709 329.689Z" fill="white"/>
<path d="M256.966 328.487L256.272 328.674L255.898 327.927L257.019 327.553H257.66L258.675 331.771H257.767L256.966 328.487Z" fill="white"/>
<path d="M245.272 329.689C244.978 328.46 245.512 327.526 246.634 327.526C247.755 327.526 248.743 328.46 249.036 329.689C249.33 330.917 248.796 331.851 247.675 331.851C246.527 331.878 245.566 330.917 245.272 329.689ZM248.075 329.689C247.888 328.941 247.381 328.354 246.82 328.354C246.26 328.354 246.046 328.914 246.233 329.689C246.42 330.463 246.927 331.023 247.488 331.023C248.049 331.023 248.262 330.463 248.075 329.689Z" fill="#2F539B"/>
<path d="M260.25 329.662C259.956 328.434 260.49 327.499 261.612 327.499C262.733 327.499 263.721 328.434 264.014 329.662C264.308 330.89 263.774 331.824 262.653 331.824C261.531 331.824 260.57 330.89 260.25 329.662ZM263.08 329.662C262.893 328.914 262.386 328.327 261.825 328.327C261.264 328.327 261.051 328.888 261.238 329.662C261.425 330.436 261.932 330.997 262.493 330.997C263.027 330.997 263.267 330.436 263.08 329.662Z" fill="#2F539B"/>
<path d="M265.883 329.662C265.589 328.434 266.123 327.499 267.245 327.499C268.366 327.499 269.354 328.434 269.647 329.662C269.941 330.89 269.407 331.824 268.286 331.824C267.165 331.824 266.177 330.89 265.883 329.662ZM268.713 329.662C268.526 328.914 268.019 328.327 267.458 328.327C266.898 328.327 266.684 328.888 266.871 329.662C267.058 330.436 267.565 330.997 268.126 330.997C268.66 330.997 268.9 330.436 268.713 329.662Z" fill="#2F539B"/>
<path d="M285.266 329.689C284.972 328.46 285.506 327.526 286.627 327.526C287.749 327.526 288.737 328.46 289.03 329.689C289.324 330.917 288.79 331.851 287.669 331.851C286.547 331.851 285.56 330.917 285.266 329.689ZM288.069 329.689C287.882 328.941 287.375 328.354 286.814 328.354C286.254 328.354 286.04 328.914 286.227 329.689C286.414 330.463 286.921 331.023 287.482 331.023C288.042 331.023 288.256 330.463 288.069 329.689Z" fill="white"/>
<path d="M291.326 328.487L290.632 328.674L290.258 327.927L291.38 327.553H292.02L293.035 331.771H292.127L291.326 328.487Z" fill="white"/>
<path d="M279.633 329.689C279.339 328.46 279.873 327.526 280.994 327.526C282.116 327.526 283.103 328.46 283.397 329.689C283.691 330.917 283.157 331.851 282.035 331.851C280.914 331.851 279.926 330.917 279.633 329.689ZM282.436 329.689C282.249 328.941 281.742 328.354 281.181 328.354C280.62 328.354 280.407 328.914 280.594 329.689C280.781 330.463 281.288 331.023 281.849 331.023C282.409 331.023 282.623 330.463 282.436 329.689Z" fill="#2F539B"/>
<path d="M294.637 329.662C294.343 328.434 294.877 327.499 295.998 327.499C297.12 327.499 298.107 328.434 298.401 329.662C298.695 330.89 298.161 331.824 297.04 331.824C295.918 331.824 294.93 330.89 294.637 329.662ZM297.44 329.662C297.253 328.914 296.746 328.327 296.185 328.327C295.625 328.327 295.411 328.888 295.598 329.662C295.785 330.436 296.292 330.997 296.853 330.997C297.413 330.997 297.627 330.436 297.44 329.662Z" fill="#2F539B"/>
<path d="M300.27 329.662C299.977 328.434 300.511 327.499 301.632 327.499C302.753 327.499 303.741 328.434 304.035 329.662C304.329 330.89 303.795 331.824 302.673 331.824C301.525 331.824 300.564 330.89 300.27 329.662ZM303.074 329.662C302.887 328.914 302.38 328.327 301.819 328.327C301.258 328.327 301.045 328.888 301.232 329.662C301.418 330.436 301.926 330.997 302.486 330.997C303.047 330.997 303.261 330.436 303.074 329.662Z" fill="#2F539B"/>
<path d="M363.517 329.689C363.223 328.46 363.757 327.526 364.878 327.526C366 327.526 366.987 328.46 367.281 329.689C367.575 330.917 367.041 331.851 365.92 331.851C364.798 331.851 363.837 330.917 363.517 329.689ZM366.347 329.689C366.16 328.941 365.653 328.354 365.092 328.354C364.531 328.354 364.318 328.914 364.504 329.689C364.691 330.463 365.199 331.023 365.759 331.023C366.293 331.023 366.534 330.463 366.347 329.689Z" fill="white"/>
<path d="M369.605 328.487L368.91 328.674L368.537 327.927L369.658 327.553H370.299L371.313 331.771H370.405L369.605 328.487Z" fill="white"/>
<path d="M357.91 329.689C357.617 328.46 358.151 327.526 359.272 327.526C360.393 327.526 361.381 328.46 361.675 329.689C361.969 330.917 361.435 331.851 360.313 331.851C359.192 331.851 358.204 330.917 357.91 329.689ZM360.714 329.689C360.527 328.941 360.02 328.354 359.459 328.354C358.898 328.354 358.685 328.914 358.872 329.689C359.058 330.463 359.566 331.023 360.126 331.023C360.687 331.023 360.901 330.463 360.714 329.689Z" fill="#2F539B"/>
<path d="M372.889 329.662C372.595 328.434 373.129 327.499 374.25 327.499C375.372 327.499 376.359 328.434 376.653 329.662C376.947 330.89 376.413 331.824 375.291 331.824C374.17 331.824 373.182 330.89 372.889 329.662ZM375.719 329.662C375.532 328.914 375.024 328.327 374.464 328.327C373.903 328.327 373.69 328.888 373.876 329.662C374.063 330.436 374.571 330.997 375.131 330.997C375.665 330.997 375.906 330.436 375.719 329.662Z" fill="#2F539B"/>
<path d="M378.522 329.662C378.228 328.434 378.762 327.499 379.883 327.499C381.005 327.499 381.992 328.434 382.286 329.662C382.58 330.89 382.046 331.824 380.925 331.824C379.803 331.824 378.815 330.89 378.522 329.662ZM381.325 329.662C381.138 328.914 380.631 328.327 380.07 328.327C379.51 328.327 379.296 328.888 379.483 329.662C379.67 330.436 380.177 330.997 380.738 330.997C381.298 330.997 381.512 330.436 381.325 329.662Z" fill="#2F539B"/>
<path d="M397.905 329.689C397.611 328.46 398.145 327.526 399.266 327.526C400.387 327.526 401.375 328.46 401.669 329.689C401.963 330.917 401.429 331.851 400.307 331.851C399.186 331.851 398.198 330.917 397.905 329.689ZM400.708 329.689C400.521 328.941 400.014 328.354 399.453 328.354C398.892 328.354 398.679 328.914 398.866 329.689C399.052 330.463 399.56 331.023 400.12 331.023C400.681 331.023 400.895 330.463 400.708 329.689Z" fill="white"/>
<path d="M403.964 328.487L403.27 328.674L402.896 327.927L404.018 327.553H404.658L405.673 331.771H404.765L403.964 328.487Z" fill="white"/>
<path d="M392.27 329.689C391.977 328.46 392.511 327.526 393.632 327.526C394.753 327.526 395.741 328.46 396.035 329.689C396.328 330.917 395.794 331.851 394.673 331.851C393.552 331.851 392.564 330.917 392.27 329.689ZM395.073 329.689C394.887 328.941 394.379 328.354 393.819 328.354C393.258 328.354 393.044 328.914 393.231 329.689C393.418 330.463 393.926 331.023 394.486 331.023C395.047 331.023 395.26 330.463 395.073 329.689Z" fill="#2F539B"/>
<path d="M407.275 329.662C406.981 328.434 407.515 327.499 408.636 327.499C409.758 327.499 410.746 328.434 411.039 329.662C411.333 330.89 410.799 331.824 409.678 331.824C408.53 331.851 407.569 330.89 407.275 329.662ZM410.078 329.662C409.891 328.914 409.384 328.327 408.823 328.327C408.263 328.327 408.049 328.888 408.236 329.662C408.423 330.436 408.93 330.997 409.491 330.997C410.051 330.997 410.265 330.436 410.078 329.662Z" fill="#2F539B"/>
<path d="M412.908 329.662C412.614 328.434 413.148 327.499 414.27 327.499C415.391 327.499 416.379 328.434 416.673 329.662C416.966 330.89 416.432 331.824 415.311 331.824C414.163 331.824 413.202 330.89 412.908 329.662ZM415.711 329.662C415.525 328.914 415.017 328.327 414.457 328.327C413.896 328.327 413.682 328.888 413.869 329.662C414.056 330.436 414.563 330.997 415.124 330.997C415.685 330.997 415.898 330.436 415.711 329.662Z" fill="#2F539B"/>
<path d="M269.354 322.16C269.06 320.932 269.594 319.997 270.715 319.997C271.837 319.997 272.825 320.932 273.118 322.16C273.412 323.388 272.878 324.322 271.757 324.322C270.635 324.349 269.648 323.388 269.354 322.16ZM272.157 322.16C271.97 321.412 271.463 320.825 270.902 320.825C270.342 320.825 270.128 321.386 270.315 322.16C270.502 322.934 271.009 323.495 271.57 323.495C272.13 323.495 272.344 322.934 272.157 322.16Z" fill="#2F539B"/>
<path d="M274.987 322.16C274.693 320.932 275.227 319.997 276.349 319.997C277.47 319.997 278.458 320.932 278.751 322.16C279.045 323.388 278.511 324.322 277.39 324.322C276.242 324.322 275.281 323.388 274.987 322.16ZM277.79 322.16C277.603 321.412 277.096 320.825 276.535 320.825C275.975 320.825 275.761 321.386 275.948 322.16C276.135 322.934 276.642 323.495 277.203 323.495C277.764 323.495 277.977 322.934 277.79 322.16Z" fill="#2F539B"/>
<path d="M377.934 322.16C377.64 320.932 378.174 319.997 379.295 319.997C380.416 319.997 381.404 320.932 381.698 322.16C381.992 323.388 381.458 324.322 380.336 324.322C379.188 324.349 378.227 323.388 377.934 322.16ZM380.737 322.16C380.55 321.412 380.043 320.825 379.482 320.825C378.921 320.825 378.708 321.386 378.895 322.16C379.082 322.934 379.589 323.495 380.149 323.495C380.71 323.495 380.924 322.934 380.737 322.16Z" fill="#2F539B"/>
<path d="M383.568 322.16C383.274 320.932 383.808 319.997 384.929 319.997C386.051 319.997 387.038 320.932 387.332 322.16C387.626 323.388 387.092 324.322 385.971 324.322C384.849 324.322 383.861 323.388 383.568 322.16ZM386.371 322.16C386.184 321.412 385.677 320.825 385.116 320.825C384.556 320.825 384.342 321.386 384.529 322.16C384.716 322.934 385.223 323.495 385.784 323.495C386.344 323.495 386.558 322.934 386.371 322.16Z" fill="#2F539B"/>
</svg>
