<svg width="16" height="16" viewBox="0 0 16 16" fill="none" xmlns="http://www.w3.org/2000/svg">
<path fill-rule="evenodd" clip-rule="evenodd" d="M15.1067 2.30806C15.4972 1.91753 15.4972 1.28437 15.1067 0.893845C14.7162 0.503321 14.083 0.503321 13.6925 0.893845L8.00028 6.58603L2.30906 0.894822C1.91854 0.504297 1.28537 0.504297 0.89485 0.894822C0.504325 1.28535 0.504325 1.91851 0.89485 2.30904L6.58606 8.00025L0.893846 13.6925C0.503321 14.083 0.503321 14.7162 0.893846 15.1067C1.28437 15.4972 1.91754 15.4972 2.30806 15.1067L8.00027 9.41446L13.6935 15.1077C14.084 15.4982 14.7172 15.4982 15.1077 15.1077C15.4982 14.7171 15.4982 14.084 15.1077 13.6934L9.41449 8.00025L15.1067 2.30806Z" fill="#586066"/>
</svg>
